<svg id="Layer_8" data-name="Layer 8" xmlns="http://www.w3.org/2000/svg" viewBox="0 0 375 667"><defs><style>.cls-1,.cls-11{fill:none;}.cls-2{fill:#e6e7e8;}.cls-3{fill:#58595b;}.cls-4{fill:#939598;}.cls-5{fill:#a7a9ac;}.cls-6{fill:#bcbec0;}.cls-7{fill:#d1d3d4;}.cls-8{fill:#6d6e71;}.cls-9{fill:#808285;}.cls-10{fill:#231f20;}.cls-11{stroke:#231f20;stroke-miterlimit:10;stroke-width:5px;}.cls-12{fill:#545960;}</style></defs><title>background</title><path class="cls-1" d="M147.68,47.71q-0.75.52,0,.57"/><path class="cls-2" d="M129.32,287.44c1.69-4.46,2.44-6.64,1.11-10.92-0.82-2.63-2.85-5.47.2-7.41A61.17,61.17,0,0,1,144,276.42c5.41,4,5.5,3.87,1.31,9.79-2,2.89-5.33,9.73-9.88,8.9-2.86-.52-8.82-8.24-6.12-10.54"/><path class="cls-3" d="M120,221.68c-0.52,2.66-2.47,8.45-1.7,11.34,0.63,2.36,3.07,2.54,4.5,4.65,2,2.94,4.71,6.28,5.42,9.74,7,0,2-13.17,9-14.23,3.07-.46,2.74,2,4.8-0.78,1.89-2.54-1.24-5.63,0-7.4,1.41-2.06,6.5,4.28,7.39,5.82,1.38,2.37-.5,4.63,3.57,1.87,3.83-2.6,2.46-5.78,8.18-3.59a81.46,81.46,0,0,0,7.79,2.84c2.69,0.74,4.5,3.12,7,3.61,5.08,1,5.62-5.14,4.9-8.88-1.45-7.52-7.86-12.93-13.57-17.05-5.49-4-10.07-8.7-16.92-9.47a25.51,25.51,0,0,0-12,1.19c-0.79.32-.72,2-1.59,2.1-1.4.2-2.47-1.32-3.54-1.28-2.57.1-1.51,0.32-3.08,2.13-0.7.81-.43,2.46-1.21,3.15-0.59.52-3.42,0.42-4.35,0.77-2.33.87-3.21,1.59-4.07,3.79-1,2.55-1.11,7.87-.91,10.59"/><path class="cls-4" d="M117.8,310.65c4.17-3.17,9.66-7.45,14.29-9.73a20.32,20.32,0,0,1,13.46-1.71c5.06,1,6.06.94,10.28,4.14,7.9,6,11.68,17.14,9.67,26.73-0.82,3.92-1.85,5.17-2.69,12-1.56,2.18-5.75,1.92-8.28,2.45-3.68.77-6.43,2.18-9.91,3.85-5.78,2.78-12.13,5.83-18.3,6.86-2.92.48-5.39,1.45-8.23,2.08s-6.19-.35-8.07,1.18a9.11,9.11,0,0,1-6.83,1.87c-0.44-.07-4.23-4.58-4.44-5.13,4.41-1.92,5.71-1.56,4.75-6.63a49.76,49.76,0,0,1-1.11-12.74c0.22-3.76.2-9.55,2-12.87,2.05-3.71,4.16-2.45,5.53-6.31Z"/><path class="cls-5" d="M49,374.31c1.15-4,3.47-5.54,6.93-6.94,2.09-.84,7.13-5.19,8.11-2.06,0.19,0.6-1.88,5.14-1.61,6.88,0.49,3.1,2.6,5.77,3.62,8.67,1.44,4.07.19,8.07,2.54,11.8,3.31,5.25,7.3,5.08,13,4.49,5.23-.54,10.09-1.29,15.54-1.53,9.89-.43,21.6-0.43,30.68-4.94,6.14-3.05,12.06-5.94,18.25-8.93,4.13-2,9.74-4.72,14.22-5.33,3.44,8.34.55,20.92,1,30.13,0.12,2.54,2.12,8.81.35,11.06-2.27,2.87-3.89,1.12-6.32,1.27-3.15.19-.32,0.4-3.87,0.36-5.42-.05-16-4.2-21-5.94-2.23-.77-8.39-0.53-10.93-0.41-2.92.15,3-12.71-4.26,6-1.89,4.85-3,11.42-7.09,14.17-3.78,2.53-8.61,3-13.06,3.28-10,.53-19.53.81-29.57,0.81a46.86,46.86,0,0,1-12.41-1.23c-3.59-.93-3.75-0.54-6.2-3.79-2.69-3.57-5.31-6.78-7.29-10.77S33.74,410.83,35,406.13c0.92-3.29,5.07-7.65,7.06-10.49,5.51-7.89,10.68-13.35,7.82-23,0.54-.5.22,0.11,0.34,0.45"/><path class="cls-6" d="M47.73,207.48c-0.33-.17,8.31-11.32,10.19-13.15,7-6.79,14.14-12.06,23.61-14.57-1.16,6.44,9-.65,11.41-1.59,5.33-2.06,11.11-3.12,16.69-4.11,8.18-1.45,21-3.83,27.91.78-17.39,19.18-31.62,41.71-48.53,61,0.45-4-6.28-6.49-8.93-8.75-4.86-4.14-10.61-7.7-16-11.35s-9-10.6-16.35-9.49"/><path class="cls-7" d="M92.61,238.9c-1.09-3.67,5.86-7.65,7.64-10.6,2.38-4,3.57-7.29,7-10.62,2.42-2.34,5.18-4.39,7.3-7,2.58-3.12,2.79-5.71,4.43-9,2.08-4.22,6.59-8.5,9.52-11.84,2.63-3,8.87-8.74,12.22-10.51,3.6-1.9,9.77-1.7,13.9-2.95,7-2.11,13.31-4.59,21.08-4.81,6.26-.17,4.42,2.57,8.67,5.61,5.39,3.86,4.09,7.42,4.09,14s0.31,12.93-.4,19.19a183.71,183.71,0,0,0-1.64,20.92c0,6.3,1.3,12.82.76,19-2.91.84-13.08,2.59-13.82-.76-0.37-1.68,1.83-3.61,2.36-5s0.22-4.48,1-5.52c1.23-1.7,3.57-1.15,4.94-2.93s1.33-4.43,1.13-6.55c-0.58-6.2-4.09-9.06-7.88-13.43-6.36-7.34-12.74-12.36-21.94-15.5-3.95-1.35-8.7-2.45-12.54-1.22-1.5.48-2.23,1.74-3.84,2-2.59.5-6.27-1.76-8.44,1.19-0.45.61,0.47,2.37,0,2.87-1.56,1.58-.84.11-3.25,0.88-3.68,1.17-5.49,1.46-6.55,5.15-1.49,5.21.57,10.89-.79,16.39-0.66,2.67-1.15,5.39-2.49,7.77-1.82,3.22-.09,2.35-4.05,1.64-7.15-1.26-11.05,0-17.59,2.5-0.84-.52.06-0.55,0-0.88"/><path class="cls-1" d="M80.78,109.17q-2.07.52,0.41,0"/><path class="cls-6" d="M199.1,191.57c-1,3.9,1.05,7.84.48,11.4-0.33,2-1.65,2.52-2.62,4.5-0.9,1.82-1,5.15-1.44,7.25-1.2,5.2-.47,10.28-0.9,15.59-0.47,5.78-1.31,11.57-.84,17.44,0.11,1.37.07,4.37,1.32,5.32,2.45,1.88,3.93-1,6-1.58,3-.79,6.7.6,9.8,0s6.38-2.64,9.77-3.22c5.8-1,11.73-.4,17.5-1.68,14.28-3.17,27.47-3.66,41.53,0,2.92,0.77,10.62,6.53,9.57-.77-0.34-2.38-4.69-6.29-5.66-9.25-1.17-3.58-1.84-7.27-4.17-10.36-1.83-2.42-4.43-4.22-6.27-6.51-2.28-2.85-3.61-6.42-5.67-9.39a104.21,104.21,0,0,0-11.4-13.45c-3.85-3.86-6.12-7.65-10.94-10.52-1.14-.68-3.5-3.12-4.46-3.38-3.52-.94-8.69,1.5-12.58.85a23.54,23.54,0,0,1-9.49-4c-1.91-1.39-2.9-3.14-5.28-3.76-5.94-1.54-8.49,3.84-11.42,7.35"/><path class="cls-7" d="M248.45,180.56c3.83,1.37,9.41,8.53,11.44,12.22,2.39,4.34,4.23,9.36,7.29,13.37,3.94,5.16,9.22,9.25,12.64,14.86a73.38,73.38,0,0,1,7,16c0.84,2.69.92,7.83,4,9.13,4.92,2.09,8.32-4.85,11.94-6.89,11.19-6.31,23.93-11.22,35.42-16.78,0.47-2.59-5.37-6.71-7.29-9a38,38,0,0,0-7.07-6.79c-2.19-1.58-5.28-2.54-7.24-4.41s-2.51-4.44-4.12-6.45c-3-3.71-5.59-4.16-10-4.65-11.22-1.25-21.06-5.57-31.77-8.61A107.52,107.52,0,0,0,244,178.9c3.5,0.93,6.64,3.06,10.09,3.77a2.47,2.47,0,0,1-.09,1.5,2.37,2.37,0,0,1-1.07.06"/><path class="cls-2" d="M90.56,174.41c5.78-5,17.09-4.83,24.15-6.79,10.37-2.88,20-.11,31.27-0.14,7.78,0,16.07.78,23.77-.31,4.13-.58,8.35-1.68,12.48-2.44s8.92-3.41,13.11-3a164.71,164.71,0,0,1,.58-21.51c0.16-.14.17-0.13,0,0-5.33,3.63-18,.83-24.14,1.13-7.94.38-17.51,0.1-25.45,1.63-11.79,2.28-24,9.24-34.7,14.31-7.73,3.64-18.71,9.32-22.58,17.56"/><path class="cls-7" d="M191.59,175.53c0.09-1.28.85-6.67-.28-7.55s-4,.38-5.12.92"/><path class="cls-6" d="M197.86,167.1c0.63,2-.86,6.53-0.78,9.35,1.57-.25,7.69-4.13,7.75-6.1,0.11-3.42-4.73-3.08-6.56-3.71-0.74.17-.12,0.44-0.4,0.87"/><path class="cls-2" d="M203,145.54c2.56,0.09,4.63,6.24,6.07,8.12,3.4,4.41,9.26,6.73,14.08,10s11,4.73,16.58,6.08c4.28,1,11.64.88,15.12,3-7.68,2.11-16.34-.18-24.05-0.84-7.07-.61-16.49-0.39-22.19-5.3-3.62-3.12-7.11-5.26-8.45-10.18-0.52-1.92-1.24-9.71,0-11.57,1-1.57,3-1.31,2.85.71"/><path class="cls-7" d="M159.45,167.75c-8.34,1.79-15.54-.71-23.91.2-4.09.44-16.71,1.47-20-.31,4.61-3.37,19.21-3.7,24.08-6.69l3,3.85Z"/><path class="cls-8" d="M41.15,427.6c-3.27,2.23-7.19.57-10.65,1.83-4.16,1.52-2.87,4.25-3.72,7.7,4,1.51,8.72,1.65,12.93,2.54s7.84,1.88,12,2c7.45,0.26,14,2.25,21.35,2.84,4.6,0.37,6.29,3.06,10.76,3.27,4.86,0.23,13-3.34,17.42-2.31,6,1.4,14.92,1.56,19.92-1.25-4.91-.4-15.6-1.38-15.9-8.51-4.89,2.61-13.7,2.67-19.34,2.1-6.6-.68-11.11.51-17.55,1.42-4.91.69-13.57,0.84-18.06-1.33a25.81,25.81,0,0,1-6.34-5c-1.61-1.63-2.81-4.8-5.29-4.94"/><path class="cls-9" d="M21.83,452.86c0.43,2.17.53,7.28,0.88,9.58,1,6.43,6.63,3.52,12.4,3.53,6.63,0,10.71,2.14,17.9,3.35A65.69,65.69,0,0,0,73.61,469c10-1.69,21.18,5.3,31.43,5.29,7.61,0,13.67-2.79,20.79-6.13,10.8-5.07,6.65-14.53.38-19.87-2.38-2-18.77,1.2-26.26-1.06-4.2-1.27-15.59,2.2-20,1.35-5.62-1.09-9-3.32-14.81-3.76-4.5-.34-11-1.49-15.51-1.88-3.11-.27-6.43-1.21-12.25-2.32-3.27-.62-9,0.77-12.13-0.67-5.94-2.73-5.09,6.95-4,11.84Z"/><path class="cls-4" d="M118.89,415.47c0.09-.48-1.25-1.43-1.41-1.88-3.27,1.9-3.32,8.41-3.15,11.85,6.41,1.12,7.69-4.8,16.1-1.8,5.19,1.85,10.93,6.23,17.45-1.41-0.05-.37,5.31-1.18,4.93-1.27-4.25-1-14.76-6.28-22.35-7-2.87-.28-0.94.14-3.76-0.51-2.5-.58-6.93-0.64-9.23.16"/><path class="cls-9" d="M181.45,356.07a13.37,13.37,0,0,0-1.7.49c-0.66,4.39-7.88,5.56-11.36,6-0.93.13-1.72,0.25-2.41,0.4a8.82,8.82,0,0,1,.23,1,7.8,7.8,0,0,1,1.85,4.71c0,2.44-2,4-4.15,4.64a14.78,14.78,0,0,1-2.21.52c-0.1,1.28-.27,2.41-0.47,3.64s-1.39.57-1.19,2.44c0.12,1.12,1.36,2.09,1.74,3a21.53,21.53,0,0,1,1.81,9.49,11.31,11.31,0,0,0-1.24,6.31c3.88-1.08,9.26-2.7,12.17-5.58,3.81-3.77,4-8.31,5.72-13C183.7,370.45,186.77,365.53,181.45,356.07Zm-18.7,39.42,0.82-2.88A8,8,0,0,1,162.75,395.5Z"/><path class="cls-2" d="M152.79,459.42c0.74,7.41-12.32,5.05-11.11-.73l5.38-5,5.1,1.38Z"/><path class="cls-2" d="M112.28,442c-3,.61-4.39-3.13-3.41-5.43,1.05-2.46,3.79-4.91,5.61-7.4l2,4.11-0.21,9.22Z"/><path class="cls-2" d="M46.73,371.6c0.33-.24.77-0.26,1.14-0.55a8.6,8.6,0,0,0-1.21-.33,1.2,1.2,0,0,1-.48.09,1.1,1.1,0,0,1-.77-0.28l-1-.07a1.13,1.13,0,0,1-2.18,0c-0.93,0-1.84.08-2.67,0.13-3.24.21-3.87,0.45-4.46,1.77-3.25,2.32.81,11,.23,14.68-0.9,5.67-1.88,10.65-1.88,16.78,0.46-2.21,3-4.21,4.57-6.07,2-2.46,2.21-4.73,3.76-7.07,3.58-5.43,6.12-6.54,5.69-13.89C44.47,376,45.38,373.51,46.73,371.6Z"/><path class="cls-2" d="M78.06,309.56c0.39,0.09.46-.93,0.61-1.33,0.33-.93.9-1.68,1.21-2.6,0.15-.46.14-0.94,0.31-1.39a6.61,6.61,0,0,1,.89-1.23,16.26,16.26,0,0,1,1.77-2.47c4.14-4.36,11.67-6.58,17.54-5.29a7.52,7.52,0,0,1,4.05,2.25,25.67,25.67,0,0,1,2.61,2.81c1.32,1.63,1.7,4.41,1.88,6.43a12,12,0,0,1-.1,4.41,8.52,8.52,0,0,0-.26,4.53c0.26,0.88.52,1.95,0,2.47-0.78.88-2,2.19-1.49,1.4,1.14-1.89-.73,1.45-2,1.64-0.15-3,1.24-3.69.61-6.78a12.5,12.5,0,0,0-1.36-3.23c-0.46-.83-0.79-1.77-1.29-2.56a18,18,0,0,0-8.62-7c-2.85-1.09-6.67-1.22-8.93,1.29a35.41,35.41,0,0,1-2.76,2.44c-0.42.38-.86,0.81-1.25,1.23a4.8,4.8,0,0,0-.63,1.18c-0.47.77-2.1,2.62-3,1.65"/><path class="cls-2" d="M99.06,341.52a20.46,20.46,0,0,1-.68,3,16.81,16.81,0,0,1-1.74,2.58,8.75,8.75,0,0,1-1.35,1.8,10.27,10.27,0,0,0-1.54,2.38c-0.92,1.51-3,2.45-4.46,3.36a19.91,19.91,0,0,0-2.44,1.73c-0.77.67-1.49,1.29-2.19,2A33.84,33.84,0,0,1,82,360.55c-1.38,1.19-1.86,3.51-2.89,5-0.62.91-1.65,1.85-1.95,2.87a18.19,18.19,0,0,0,5.46-2.32c1.93-1.33,2.32-3.87,4.46-5.13,0.62-.37,2.12-0.28,2.14.67,0,0.7-1.39,1.62-1.83,2.16-0.87,1.06-2.17,2.78-1.62,4.33,0.63,1.78,2.74-1.26,3.23-1.8,0.32-.36,1.64-1.45,2.18-1.33s0.43,1.78.39,2.35c-0.07,1-.57,1.67-0.71,2.59a14,14,0,0,0-.08,2.74c0,0.87.15,1.73,0.24,2.6s-0.21,1.72.23,2.47a32.26,32.26,0,0,1,3-5.64,18.06,18.06,0,0,0,1.72-5.53,8.58,8.58,0,0,1,1.5-2.85,31.62,31.62,0,0,0,1.77-3,7.59,7.59,0,0,0,1.19-1.81c0-.54-0.69-1-1.08-1.35a5.68,5.68,0,0,0-1.73-1c-0.16-.78,3.47-0.88,4.12-1.49a3.4,3.4,0,0,0,.73-2.63,4.08,4.08,0,0,0-.23-1.9c-0.15-.3-0.5-0.53-0.64-0.82a2.73,2.73,0,0,1-.15-1.28,9.51,9.51,0,0,0-.69-3.53,3.2,3.2,0,0,1-.26-1.58c0-.21.12-0.48,0.16-0.7a3.83,3.83,0,0,0,0-1c0-.81,0-1.59-0.05-2.41a5.15,5.15,0,0,1-.1-0.73,6.7,6.7,0,0,1,.25-0.76,8.11,8.11,0,0,0,.09-1.57c0-.52.08-2.79-0.23-3a10.39,10.39,0,0,0-1.55,3,7.07,7.07,0,0,0,.05,3c0.11,1.26.35,2.24-.31,3.31"/><path class="cls-2" d="M122.09,243.75c-1,.21-1.33,2.22-0.92,3s1.92,1.78,2.65.62a2.67,2.67,0,0,0-.47-2.94c-0.38-.33-1.35-0.75-1.64-0.33"/><path class="cls-5" d="M148.65,237.4a12.69,12.69,0,0,0,1.87.17,14.11,14.11,0,0,1,2.36.75c0.76,0.3,1.56.71,2.36,1s1.94,1,2.79.86c0.2-.9-1.39-2-2-2.42a10.68,10.68,0,0,0-3-1.43,5.27,5.27,0,0,0-3.51-.08c-1.07.46-.94,1.69,0.09,1.43"/><path class="cls-6" d="M168.47,241.56a8.48,8.48,0,0,1,2.19.17,5.92,5.92,0,0,0,1.57.38c1.3,0,.71-0.84-0.06-1.19a5.66,5.66,0,0,0-3.46-.2c-0.42.13-1,.38-0.55,0.85a3.73,3.73,0,0,0,1.1.07"/><path class="cls-1" d="M78.53,250.8q-0.25,0-.25.12l0.32-.12"/><path class="cls-2" d="M43,369c-2.89-2.14-4.06-4.64-3.65-8.54s2.78-7.3.36-11.1c-1,1-2.53,1.83-3.18,3l0.44-1.31c-1.36,2.32-3.11,3.64-3.54,6.33a42.21,42.21,0,0,0-.33,7.34c0.22,5.36,4.66,5.7,9.18,5.45A1.15,1.15,0,0,1,43,369Z"/><path class="cls-6" d="M115.89,266.5c0.16,0.33,0-.54-0.07-0.67-3.27,2.38-2.58,6.53-1.89,8.68,0.89,2.77,1.84,5.77,2.64,8.56,1.42,4.91,9.72,11.45,14.13,13.05,2.33,0.85,6.76,3.09,8.56.35,2-3.05-1.94-5.27-4.26-6.09-5.4-1.91-11.55-2.21-13.93-8.73-1.24-3.39-.17-7.12-0.93-10.58-0.24-1.08-1.91-4.4-2.94-4.86-1.79-.79-3,0.11-2,2"/><path class="cls-7" d="M319.73,557.68c-15.18,0-71.61,15.95-71.61.87C219.94,546,165.73,554.36,133.21,556c-21.68.84-42.28,0.84-64,2.51-16.82,1.44-24.93,6.21-40.8,8.58l-1.51.91,3.86-.33c-5.17,1.37-18.91,12.89-6.36,28,9.59,11.57,9,8.9,34,17.27,8.67,2.51,8.67,8.38,15.18,10.89,11.92,4.19,28.18.84,41.19,1.68,14.09,1.68,27.1,6.7,42.28,7.54,56.37,3.35,146.41-5.9,191.94-37.73C373.93,579.47,343.58,558.52,319.73,557.68Z"/><path class="cls-7" d="M319.73,557.24A78.57,78.57,0,0,0,308,558.54c-5.55.87-11.07,1.87-16.61,2.8-10.82,1.81-22.17,4-33.19,3.1-3.59-.29-9.55-1.21-9.61-5.89a0.43,0.43,0,0,0-.22-0.38c-12.72-5.62-27.25-6.6-41-6.83-16.2-.27-32.4,1-48.54,2.35-7.24.6-14.48,1.22-21.73,1.69-9.74.62-19.51,0.72-29.26,1-10.51.28-21,.62-31.53,1.27a134.16,134.16,0,0,0-26.79,4.14c-3.53.95-7,2-10.59,2.84q-3,.75-6.09,1.34c-1.11.22-2.22,0.41-3.33,0.59a6.8,6.8,0,0,0-2.78,1.14,0.44,0.44,0,0,0,.22.82l3.86-.33-0.12-.86c-4.29,1.21-8,5.09-10,8.9-3.4,6.35-1.49,13.32,2.63,18.82,2.52,3.36,5.47,6.87,9,9.24,3.33,2.25,7.41,3.31,11.2,4.48,3.48,1.07,7,2.14,10.43,3.26,4.06,1.31,8.09,2.36,11.25,5.38,2.06,2,3.67,4.28,6.08,5.85,3.06,2,7.14,2.5,10.68,2.91,9,1,18.15-.15,27.18-0.25,9.52-.1,18.75,2.52,28,4.59a145.82,145.82,0,0,0,25.83,3.39c7,0.3,14,.39,21,0.33,15.47-.13,30.94-1,46.33-2.66,30.91-3.24,62.22-9.09,91.08-20.92a163.61,163.61,0,0,0,18.42-8.87q4.24-2.39,8.27-5.12c2.89-2,5.74-3.9,7.91-6.68a12.53,12.53,0,0,0,1.35-13.73c-2.67-5.39-8.06-9.26-13.19-12.1a55.44,55.44,0,0,0-24.32-6.87,0.44,0.44,0,0,0,0,.87,55.23,55.23,0,0,1,21.6,5.58c5.76,2.77,11.62,6.73,14.85,12.39s1.39,11.31-3,15.57a54.59,54.59,0,0,1-8.82,6.31c-2.79,1.77-5.66,3.4-8.58,4.95-13,6.89-26.93,11.84-41,15.82a366.63,366.63,0,0,1-46.84,9.71,450.43,450.43,0,0,1-90.42,4.26c-9.89-.57-19.44-3-29.06-5.12-4.5-1-9-1.89-13.6-2.45-4.33-.53-8.92-0.09-13.26.1-8.91.4-18.23,1.19-26.89-1.45-3.29-1-5.39-3.3-7.62-5.77a18.28,18.28,0,0,0-8-5.27c-6.62-2.2-13.34-4.1-20-6.34a23.94,23.94,0,0,1-9.31-5.32c-4.65-4.47-9.54-10.16-10-16.83-0.45-6,3.39-11.63,8.3-14.78a10.74,10.74,0,0,1,2.85-1.34,0.44,0.44,0,0,0-.12-0.86l-3.86.33,0.22,0.82c2.08-1.26,4.6-1.37,7-1.84,2.17-.43,4.32-0.95,6.47-1.49,3.83-1,7.62-2.09,11.45-3.08,9.45-2.44,19-3.23,28.72-3.77,19.7-1.08,39.47-.82,59.15-2.17,15.5-1.07,31-2.66,46.47-3.43s31.45-1,46.81,1.9a78,78,0,0,1,9.64,2.45q2.24,0.73,4.41,1.65c0.54,0.23.42,0.1,0.5,0.71a5.4,5.4,0,0,0,.23,1c0.91,2.75,4,3.89,6.57,4.45,4.39,1,9.06.76,13.51,0.46,5.72-.38,11.42-1.17,17.09-2,6.68-1,13.34-2.24,20-3.34,4.8-.79,9.71-1.74,14.59-1.76A0.44,0.44,0,0,0,319.73,557.24Z"/><path class="cls-2" d="M72.43,453.61c1.2,2.78-.81,7.83-0.8,10.92C71.56,472.61,70.31,481,70.39,489c0.09,9.37.89,18.48,1.13,27.8,0.08,11.53-1.07,23.25-.84,34.72,0,5.76.37,11.42,0.08,17.17-0.19,2.09-.08,5-0.93,7.07-0.56,1.55-2.24,4.87-3.64,5.93-3.17,2.39-5.79-.26-5.77-2.82,0.15-5.7,3.69-11.86,4.17-17.55,0.45-4.87,1.38-9.79,1.22-14.57-0.23-4.08-1.35-8-1.86-11.94-0.56-5.84-.17-11.76-0.44-17.71a235.28,235.28,0,0,1-.16-25.21c0.39-4.18,1.44-8.33,1.68-12.46,0.35-4.3-.54-8.4-0.81-12.6-0.25-3.27-.81-7,0.55-10.28,1-2.24,2.19-2.83,5-3.49,1.23-.19,3.6-0.81,3.09.86"/><path class="cls-10" d="M71.86,453.77c1,2.55-.1,5.66-0.55,8.23-0.55,3.15-.35,6.46-0.56,9.65-0.49,7.51-1.07,14.92-.83,22.45s0.82,15.16,1,22.75-0.42,15.27-.69,22.88,0,15.31,0,23A92.6,92.6,0,0,1,69.87,573a15.13,15.13,0,0,1-3.39,7.59,3.25,3.25,0,0,1-4,1.13c-1.46-.78-1.57-2.52-1.45-4,0.29-3.37,1.6-6.62,2.62-9.82a51.88,51.88,0,0,0,1.83-9.81,78.56,78.56,0,0,0,.87-11.37c-0.09-3.5-1-7-1.63-10.4a69.31,69.31,0,0,1-.56-11.49c0-7.61-.52-15.2-0.55-22.8a94.41,94.41,0,0,1,.43-11.5c0.44-3.72,1.29-7.37,1.54-11.11s-0.35-7.5-.7-11.25c-0.32-3.38-.84-7,0-10.31a4.91,4.91,0,0,1,3.17-3.74,13.45,13.45,0,0,1,2.27-.58c0.42-.07,2.11-0.51,1.94.21a0.59,0.59,0,0,0,1.13.31c0.52-2.22-2-1.9-3.39-1.66-2.07.36-4.1,1-5.3,2.85-1.66,2.52-1.56,6-1.36,8.85,0.25,3.6.74,7.18,1,10.77a48,48,0,0,1-.9,11.48,79.57,79.57,0,0,0-1,11.08c-0.19,7.63.36,15.23,0.49,22.85,0.06,3.79,0,7.57.13,11.36a78.89,78.89,0,0,0,1.51,10.51,40.07,40.07,0,0,1,.24,11.37,86,86,0,0,1-1.45,11c-0.78,3.26-2.06,6.38-2.89,9.63-0.6,2.32-1.4,5.44.24,7.51s4.11,1.81,6,.27c1.73-1.41,2.85-4,3.61-6,1-2.81.94-6.13,1-9.09,0.12-3.86,0-7.73-.09-11.59-0.17-7.64.06-15.26,0.39-22.9s0.48-15.21.12-22.85-1-15.13-.84-22.7c0.1-6.42.88-12.81,1.15-19.22,0.05-1.31,0-2.63.11-3.94a32.85,32.85,0,0,1,.63-3.73c0.4-2.08.91-4.46,0.11-6.51-0.27-.7-1.41-0.39-1.13.31h0Z"/><path class="cls-2" d="M64.56,528.14c1.23-10-18.66,4.42-24.64,8.09,3,1.71,3.22,1,3.49,4.3a198.85,198.85,0,0,0,21.15-12.39"/><path class="cls-10" d="M65.15,528.14c0.21-1.9-.4-3.77-2.52-4-2.39-.27-4.93,1-7,2-5.64,2.67-10.68,6.37-16,9.63a0.59,0.59,0,0,0,0,1c0.82,0.46,1.71.82,2.51,1.32s0.64,1.76.7,2.47a0.6,0.6,0,0,0,.88.51,212.79,212.79,0,0,0,21.15-12.39,0.59,0.59,0,0,0-.59-1A212.81,212.81,0,0,1,43.12,540L44,540.53c-0.08-1-.07-2.25-0.76-3s-2.07-1.24-3-1.77v1c4.69-2.89,9.19-6.07,14.06-8.67a21.81,21.81,0,0,1,7.11-2.76,2.66,2.66,0,0,1,2.12.39,2.88,2.88,0,0,1,.46,2.44c-0.08.75,1.09,0.74,1.18,0h0Z"/><path class="cls-2" d="M70.61,524.5c-6,8.1,27.38,9.62,37.8,10.7-1.85-3.26-2.81-2.81.08-5.54-12.31-2-24.61-4-37.88-5.16"/><path class="cls-10" d="M70.1,524.21c-3.67,5.1,6,7.37,9.15,8.07,7.92,1.8,16.12,2.38,24.19,3.06,1.66,0.14,3.31.27,5,.44a0.59,0.59,0,0,0,.51-0.88c-0.5-.86-1.12-1.66-1.59-2.54s1.13-1.86,1.58-2.29a0.59,0.59,0,0,0-.26-1C96,527,83.37,525,70.61,523.92c-0.76-.06-0.75,1.11,0,1.18,12.66,1.07,25.2,3.08,37.72,5.14l-0.26-1c-0.79.75-2,1.65-2,2.85s1.3,2.48,1.83,3.4l0.51-.88c-7.56-.77-15.15-1.2-22.68-2.33a57.3,57.3,0,0,1-10.91-2.47c-1.44-.52-4.7-1.71-4.31-3.78a3.17,3.17,0,0,1,.6-1.23c0.44-.62-0.58-1.2-1-0.59h0Z"/><path class="cls-2" d="M104.53,460.19c-1.2,2.78.81,7.83,0.8,10.92,0.07,8.09,1.32,16.48,1.24,24.52-0.09,9.37-.89,18.48-1.13,27.8-0.08,11.53,1.07,23.25.84,34.72,0,5.76-.37,11.42-0.08,17.17,0.19,2.09.08,5,.93,7.07,0.56,1.55,2.24,4.87,3.64,5.93,3.17,2.39,5.79-.26,5.77-2.82-0.15-5.7-3.69-11.86-4.17-17.55-0.45-4.87-1.38-9.79-1.22-14.57,0.23-4.08,1.35-8,1.86-11.94,0.56-5.84.17-11.76,0.44-17.71a235.28,235.28,0,0,0,.16-25.21c-0.39-4.18-1.44-8.33-1.68-12.46-0.35-4.3.54-8.4,0.81-12.6,0.25-3.27.81-7-.55-10.28-1-2.24-2.19-2.83-5-3.49-1.23-.19-3.6-0.81-3.09.86"/><path class="cls-10" d="M104,460c-0.92,2.36-.15,5.15.31,7.53,0.62,3.22.51,6.5,0.71,9.77,0.45,7.5,1.13,14.91.92,22.43s-0.79,15.16-1,22.75,0.35,15.27.64,22.88,0.09,15.3,0,23q-0.06,5.26.33,10.51a16.61,16.61,0,0,0,2.47,7.26c1.12,1.9,3,4.18,5.53,3.66s3.39-2.79,3.25-5c-0.2-3.21-1.34-6.32-2.32-9.35-0.5-1.52-1-3-1.34-4.61a48,48,0,0,1-.77-5.59,88.28,88.28,0,0,1-.94-11.37c0-3.69,1.08-7.33,1.67-11a69.09,69.09,0,0,0,.53-10.93c0-3.8.09-7.59,0.25-11.4,0.31-7.58.76-15.36-.07-22.92-0.41-3.72-1.26-7.38-1.56-11.12s0.25-7.49.63-11.25a50.06,50.06,0,0,0,.41-8.52c-0.15-2.13-.74-4.58-2.42-6-1.23-1.07-8.51-3.59-7.67,0a0.59,0.59,0,0,0,1.13-.31c-0.14-.62.85-0.38,1.23-0.33s1,0.16,1.48.27a6.81,6.81,0,0,1,3.33,1.51c2.25,2.2,1.88,6.46,1.66,9.3-0.28,3.61-.78,7.21-1,10.83a47.74,47.74,0,0,0,.9,10.9c1.26,7.66,1.19,15.38.94,23.12-0.12,3.8-.35,7.59-0.4,11.39s0,7.57-.15,11.35a102.43,102.43,0,0,1-1.66,11,40.72,40.72,0,0,0,0,10.86,94.49,94.49,0,0,0,1.35,10.48c0.73,3.27,2,6.39,2.88,9.62,0.62,2.3,2,7.54-1.79,7.93-2.85.3-4.65-3.9-5.52-6-1.17-2.82-1.05-6.19-1.15-9.2-0.12-3.86,0-7.73.09-11.59,0.33-15.26-1.23-30.49-.51-45.74,0.36-7.56,1-15.13.84-22.7s-1.15-14.86-1.23-22.32a30.18,30.18,0,0,0-.77-5.22c-0.34-1.78-.73-3.79,0-5.54,0.28-.71-0.86-1-1.13-0.31h0Z"/><path class="cls-2" d="M39,459.7c0.89,1.43-.77,4.51-1.17,6.11-0.52,2.44-.36,4.91-0.89,7.34s-1.41,5-1.73,7.63c-0.52,5.63,1.57,11,1.85,16.65,0.12,3.55-.28,7.14-0.2,10.57,0,4.39.77,8.64,0.85,12.87,0.24,18.65-2,37.21-3.35,55.88-0.48,6.14-1.45,12.45-1.25,18.63a18.71,18.71,0,0,0,.73,4.54c1.41-.61,3.35-0.87,4.35-1.87,1.65-1.49,1.57-4.52,2.26-6.48,1.77-5.52,4-10.92,3.31-16.93a19.79,19.79,0,0,1,.2-7.38,42.1,42.1,0,0,0,.16-7.5c-0.08-5.82,2.62-11.38,3-17.37,0.69-10.33,1.94-20.59,1.78-31-0.16-10.84,0-21.93.37-32.81,0.2-7,1-13.76-2-20.2-1.09-2.42-1.53-2.54-4.15-1.52-1.77.73-2.7,2-4.35,3.07"/><path class="cls-10" d="M38.47,460c0.55,1.05-.15,2.57-0.51,3.58a17.91,17.91,0,0,0-1,4c-0.22,1.82-.23,3.66-0.59,5.46s-0.92,3.64-1.35,5.47c-1.65,7.06,1.54,14.1,1.46,21.18,0,3.69-.34,7.36-0.13,11.05s0.73,7.38.77,11.1c0.07,7.77-.29,15.53-0.81,23.28-0.64,9.48-1.55,18.93-2.3,28.4-0.36,4.57-.85,9.13-1.23,13.71-0.35,4.17-.81,8.82.48,12.88a0.59,0.59,0,0,0,.72.41c1.23-.5,2.54-0.77,3.73-1.38a4.79,4.79,0,0,0,2.13-2.62,21.42,21.42,0,0,0,.86-3.66,45.46,45.46,0,0,1,1.5-4.73,40.34,40.34,0,0,0,2.23-10c0.22-3.46-.68-6.78,0-10.23s0.06-7,.4-10.58,1.53-7,2.27-10.52A84.13,84.13,0,0,0,48.18,536c0.31-3.79.63-7.58,0.89-11.38,0.49-7.35.35-14.67,0.35-22,0-7.56.14-15.13,0.38-22.68,0.21-6.58,1-13.4-1.15-19.75-0.53-1.57-1.28-4.35-3.27-4.54a6.48,6.48,0,0,0-2.91.85c-1.5.67-2.65,2-4,2.9-0.62.43,0,1.44,0.59,1,1.25-.86,2.33-2,3.64-2.72,0.76-.44,2.5-1.34,3.26-0.52,1,1,1.4,2.83,1.8,4.12a25.74,25.74,0,0,1,1,5.52,84,84,0,0,1-.08,10.46c-0.15,3.81-.24,7.63-0.32,11.44q-0.24,11.55-.08,23.11c0.1,7.63-.57,15.24-1.19,22.83-0.26,3.22-.35,6.5-0.8,9.7-0.42,2.93-1.29,5.79-2,8.67a32.94,32.94,0,0,0-.81,8.52,42.17,42.17,0,0,1,0,4.43c-0.11,1.5-.52,2.95-0.6,4.45-0.14,2.85.51,5.65,0.27,8.51a39.3,39.3,0,0,1-2.12,8.85c-0.42,1.3-.86,2.59-1.28,3.88-0.35,1.07-.47,2.21-0.72,3.31a4.71,4.71,0,0,1-1.67,2.94c-1.06.76-2.53,0.94-3.73,1.42l0.72,0.41c-1.08-3.41-.79-7.23-0.57-10.74,0.24-3.8.71-7.58,1-11.37,0.68-7.75,1.28-15.51,1.92-23.26s1.18-15.5,1.41-23.27c0.12-3.85.22-7.72,0.05-11.56s-0.73-7.39-.8-11.1c-0.08-4.54.53-9.08,0-13.6s-1.84-8.72-1.67-13.21a32.29,32.29,0,0,1,1.4-6.65,39.5,39.5,0,0,0,.93-6.6,20.1,20.1,0,0,1,1.26-5.1c0.42-1.23.82-2.67,0.19-3.89a0.59,0.59,0,0,0-1,.59h0Z"/><path class="cls-2" d="M108.94,537.08c0.23-12.09-19.44,3.78-24.29,7.44,3.88,2,3.79,1.18,5.42,4.79,6.47-3.68,12.94-7.29,18.86-12.18"/><path class="cls-10" d="M109.53,537.08c0-2.14-.63-4.44-3-5s-5.2.78-7.34,1.84c-5.37,2.66-10.1,6.45-14.86,10a0.6,0.6,0,0,0,0,1,35.58,35.58,0,0,1,3.43,1.7c0.92,0.6,1.35,1.94,1.78,2.88a0.59,0.59,0,0,0,.8.21c6.56-3.73,13.12-7.47,19-12.27,0.59-.48-0.25-1.31-0.83-0.83-5.78,4.73-12.27,8.41-18.75,12.08l0.8,0.21a7.92,7.92,0,0,0-2-3.13A21.37,21.37,0,0,0,84.95,544v1a118.21,118.21,0,0,1,13.23-9.18c2.14-1.2,4.59-2.51,7.09-2.64s3.1,1.78,3.09,3.88a0.59,0.59,0,0,0,1.18,0h0Z"/><path class="cls-2" d="M43.59,534.67c-17.45,9.17,29.77,14.1,41.06,15.51-2.05-4.94-3.08-4.23,0-8.46-13.34-2.82-26.86-5.64-41.23-7.05"/><path class="cls-10" d="M43.29,534.16c-1.66.88-4,2.21-4.12,4.35-0.11,1.79,1.79,3,3.14,3.79a36,36,0,0,0,8.25,3c3.68,1,7.42,1.69,11.16,2.34,7.6,1.32,15.26,2.21,22.92,3.17a0.59,0.59,0,0,0,.51-0.88,27,27,0,0,1-1.84-4.2c-0.28-1.24,1.2-2.78,1.84-3.67a0.59,0.59,0,0,0-.35-0.86c-13.7-2.9-27.44-5.69-41.39-7.07-0.75-.07-0.75,1.1,0,1.18,13.85,1.37,27.48,4.16,41.08,7l-0.35-.86c-0.87,1.2-2.16,2.66-2,4.26s1.38,3.3,2,4.79l0.51-.88c-6.37-.79-12.73-1.54-19.07-2.54-7-1.1-14.33-2.22-20.92-4.94-1.41-.58-3.76-1.52-4.26-3.15s2.33-3.17,3.48-3.78a0.59,0.59,0,0,0-.59-1h0Z"/><path class="cls-2" d="M86.89,465.46a19.44,19.44,0,0,1-.1,4.78c-0.3,3.27-.5,6.8-0.89,10.07-1,7.81-.2,15.86-1,23.67-1.09,10.57-1.19,21-1.59,31.72C83,547,81.13,558.49,81.93,569.95c0.47,7.78,1.82,15.77.89,21.91-0.5,3.15-.89,6.17-1.19,9.44-0.3,2.27-1.65,7.93-.36,9.95,2.28,3.4,6.21-4.41,7-6.55,1.69-4.91,1.39-12.35,1.39-17.63,0-5.92,0-11.71-.1-17.62-0.1-4.91-.2-9.82.1-14.85,0.5-9.06,2-17.75,2.08-26.94,0.1-18.63-.89-37.52.89-56.15,0.3-2.77,1.69-6.67-1.19-7.3-1.59-.38-4.07,0-5,1.89"/><path class="cls-10" d="M86.32,465.62a18.72,18.72,0,0,1-.12,4.63c-0.14,1.9-.31,3.8-0.46,5.7-0.31,3.73-.8,7.43-0.92,11.18s-0.05,7.62-.16,11.42-0.58,7.6-.86,11.4c-0.56,7.64-.72,15.31-1,23s-0.93,15.21-1.4,22.83c-0.23,3.81-.35,7.63-0.23,11.45s0.52,7.51.86,11.26a80,80,0,0,1,.46,10.44c-0.14,3.41-.88,6.81-1.25,10.2-0.28,2.53-.76,5-1,7.57-0.18,1.77-.4,4.27,1.13,5.55,2.82,2.36,6-4.06,6.81-5.83,2.31-4.81,2.11-10.65,2.09-15.86,0-7.33,0-14.66-.13-22a189.08,189.08,0,0,1,.81-22.49,224.21,224.21,0,0,0,1.39-22.54c0-13.36-.46-26.72.09-40.08q0.2-4.83.59-9.65c0.2-2.36.85-4.78,0.8-7.14-0.09-4.26-6.19-3.93-7.83-.86a0.59,0.59,0,0,0,1,.59,3.59,3.59,0,0,1,3.41-1.73,2,2,0,0,1,2.24,2.26,20.35,20.35,0,0,1-.46,3.6c-0.27,1.69-.36,3.41-0.48,5.12-0.58,7.66-.72,15.35-0.73,23s0.15,15.35.19,23c0,3.81,0,7.62-.21,11.42s-0.62,7.45-1,11.17a189,189,0,0,0-1,22.48c0.13,7.45.11,14.89,0.16,22.33,0,5.44.46,11.66-1.92,16.71a16.7,16.7,0,0,1-3.3,5c-2,1.93-2.57-1-2.55-2.64,0-2.33.69-4.57,0.9-6.88,0.33-3.53.93-7,1.33-10.52a52.85,52.85,0,0,0-.13-10.13c-0.3-3.72-.69-7.44-0.93-11.16-0.5-7.63.2-15.27,0.79-22.87s0.77-15.27,1-22.92c0.17-5,.39-10.09.78-15.12s0.8-10,.83-15.05,0.26-9.94.77-14.93c0.24-2.35.4-4.7,0.59-7.05a24.44,24.44,0,0,0,.19-6.23c-0.13-.75-1.27-0.43-1.13.31h0Z"/><path class="cls-10" d="M123.47,209.59c-0.72,4.46-4.14,7.94-4.69,12.44-0.54,4.35-.16,8.75-0.53,13.11-0.06.76,1.11,0.75,1.18,0,0.35-4.13.08-8.3,0.45-12.43,0.43-4.66,4-8.22,4.73-12.81,0.12-.74-1-1.06-1.13-0.31h0Z"/><path class="cls-10" d="M123.43,209.11a13.74,13.74,0,0,0,6.89-.94,0.61,0.61,0,0,0,.43-0.57c0.07-1.36.89-2.51,1.2-3.82l-0.72.41c5,2.11,9.5-1.46,14.22-2.74,2.81-.76,5.82,0,8.51.89a36,36,0,0,1,8.09,4.13,48.06,48.06,0,0,1,12.19,12c3.27,4.55,5.78,10,5.51,15.7l1.09-.3a4.46,4.46,0,0,0-4.48-2.43,0.61,0.61,0,0,0-.57.43c-0.59,2.12-.94,4.3-1.53,6.42l1.07-.14c-1.82-2.65-4.47-4.51-6.42-7a0.6,0.6,0,0,0-1,0,7,7,0,0,1-2,2l0.92,0.12a13.43,13.43,0,0,0-4.19-5.11,0.59,0.59,0,0,0-.8.21c-0.61,1-1.76,1.52-2.45,2.45L160.4,231a4.66,4.66,0,0,0-2.16-3.06,3.42,3.42,0,0,0-3.07.44c-2.34,1.31-3.88,3.67-5.85,5.43l1,0.42c0-3.23.54-6.94-2.43-9.07a0.59,0.59,0,0,0-.71.09,16.26,16.26,0,0,0-3.15,3.48l1.07,0.14a7.6,7.6,0,0,0-3.33-4.94,0.6,0.6,0,0,0-.8.21c-2.31,3.19-1,7.49.61,10.69l0.8-.8c-2.06-.92-4.65-1.9-6.82-0.78-1.59.82-2.21,2.76-2.57,4.39-0.66,3-.3,9.4-4.68,9.47l0.59,0.59c0.21-3.15-1.42-5.52-3.79-7.42-1.86-1.5-5.16-3-5.39-5.73-0.07-.75-1.24-0.76-1.18,0,0.23,2.61,2.46,4.14,4.41,5.56,2.64,1.93,5,4,4.77,7.59a0.59,0.59,0,0,0,.59.59c4.42-.07,4.94-4.83,5.45-8.24,0.25-1.71.46-3.8,1.63-5.17,1.59-1.85,4.6-.63,6.39.17a0.59,0.59,0,0,0,.8-0.8c-1.39-2.84-2.67-6.67-.61-9.5l-0.8.21a6.44,6.44,0,0,1,2.79,4.24,0.59,0.59,0,0,0,1.07.14,15.28,15.28,0,0,1,3-3.25l-0.71.09c2.51,1.8,1.87,5.38,1.85,8.06a0.59,0.59,0,0,0,1,.42c1.55-1.38,2.82-3,4.41-4.39a5,5,0,0,1,2.54-1.34c1.28-.12,1.85,1.45,2.17,2.41a0.59,0.59,0,0,0,1.07.14c0.69-.93,1.82-1.46,2.45-2.45l-0.8.21a12.27,12.27,0,0,1,3.77,4.68,0.59,0.59,0,0,0,.92.12c0.79-.73,1.78-1.24,2.23-2.26h-1c1.95,2.53,4.61,4.4,6.42,7a0.59,0.59,0,0,0,1.07-.14c0.59-2.12.94-4.3,1.53-6.42l-0.57.43a3.33,3.33,0,0,1,3.47,1.85,0.59,0.59,0,0,0,1.09-.3c0.28-5.68-2.11-11.06-5.23-15.67a50.15,50.15,0,0,0-11.86-12.27c-4.6-3.34-10.36-6.26-16.16-6.32s-10.36,5.51-16.13,3.1a0.59,0.59,0,0,0-.72.41c-0.34,1.43-1.17,2.63-1.24,4.13L130,207a13,13,0,0,1-6.57.9c-0.75-.08-0.74,1.09,0,1.18h0Z"/><path class="cls-10" d="M146.46,242.59a1.43,1.43,0,0,0-.7.18,0.59,0.59,0,0,0,.59,1c2.59-1.24,6.73-2.92,8.48.4a0.59,0.59,0,0,0,1-.59c-2.1-4-6.89-2.35-10.09-.82l0.59,1,0.11,0c0.75,0,.76-1.22,0-1.18h0Z"/><path class="cls-10" d="M148.34,244.05a3.35,3.35,0,0,0,2.32,0,1.09,1.09,0,0,0,.5-1.87,0.59,0.59,0,0,0-.83.83,0.14,0.14,0,1,0,.05.05c0-.1.11-0.27,0-0.17a1.53,1.53,0,0,1-.45.15,2.21,2.21,0,0,1-1.28-.09,0.59,0.59,0,0,0-.72.41,0.6,0.6,0,0,0,.41.72h0Z"/><path class="cls-10" d="M165.08,247.31c0.47-1.76,4.43-2,5.25-.47a0.59,0.59,0,0,0,1-.59c-1.3-2.47-6.66-2-7.4.75a0.59,0.59,0,0,0,1.13.31h0Z"/><path class="cls-10" d="M164.87,248c1.38,0.24,2.87.19,3.72-1.09,0.42-.63-0.6-1.22-1-0.59s-1.59.68-2.4,0.55-1.06,1-.31,1.13h0Z"/><path class="cls-10" d="M162.82,247.31c1.11,4.31.95,8.82,1.94,13.16l0.41-.72c-2,.64-4.08,1.68-5.65-0.22-1-1.27-2.85-.6-4.08,0-0.69.32-.09,1.33,0.59,1s1.94-.9,2.65-0.16a4,4,0,0,0,1.51,1.21c1.8,0.67,3.57-.13,5.28-0.69a0.6,0.6,0,0,0,.41-0.72c-1-4.33-.83-8.84-1.94-13.16a0.59,0.59,0,0,0-1.13.31h0Z"/><path class="cls-10" d="M151.84,266.55a7.52,7.52,0,0,1,3.49-.19c1.19,0.1,2.39.07,3.58,0.17s4.09,0.36,4.3,1.94c0.09,0.74,1.27.75,1.18,0-0.26-2-2.25-2.59-4-2.9a28.2,28.2,0,0,0-4.2-.35c-1.6,0-3.14-.4-4.68.19-0.7.27-.4,1.4,0.31,1.13h0Z"/><path class="cls-10" d="M119.89,237.31c-1.8-.69-3.48-0.25-4,1.75s0.06,4.36.56,6.33a40.7,40.7,0,0,0,2.63,7.24c0.59,1.25,1.75,3.2,3.36,3.2s2.37-1.31,2.63-2.71c0.14-.74-1-1.06-1.13-0.31a2.1,2.1,0,0,1-1.16,1.82c-0.91.31-1.74-1-2.13-1.59a21.93,21.93,0,0,1-1.92-4.49,35.14,35.14,0,0,1-1.24-3.86,15.13,15.13,0,0,1-.55-4.82c0.14-1.67,1.15-2,2.62-1.44,0.71,0.27,1-.87.31-1.13h0Z"/><path class="cls-10" d="M122.9,243c-2.41-.2-3.38,2.82-2.52,4.69,0.4,0.88,1.56,1.91,2.59,1.4s1-2,.7-2.91c-0.26-.71-1.39-0.4-1.13.31,0.09,0.25.41,1.63-.19,1.53a1.63,1.63,0,0,1-1.09-1.47c-0.14-1.09.35-2.49,1.64-2.38,0.76,0.06.75-1.11,0-1.18h0Z"/><path class="cls-10" d="M117.95,254.55c0.63,2.69-1.6,5.11-1.24,7.8,0.1,0.74,1.28.75,1.18,0-0.37-2.79,1.87-5.25,1.2-8.11a0.59,0.59,0,0,0-1.13.31h0Z"/><path class="cls-10" d="M152.73,246.8a3.35,3.35,0,0,0,2.49-.67c0.63-.41,0-1.43-0.59-1a2.35,2.35,0,0,1-1.59.55,0.59,0.59,0,0,0-.31,1.13h0Z"/><path class="cls-10" d="M147.08,238.18a2,2,0,0,0,1.53.15,6.27,6.27,0,0,1,3.44.63c1.89,0.72,4.15,1.31,5.42,3,0.45,0.6,1.47,0,1-.59a9.06,9.06,0,0,0-4.33-2.82c-1.09-.42-2.16-0.89-3.29-1.21a7.9,7.9,0,0,0-1.34-.22,6.84,6.84,0,0,1-1.86.07,0.59,0.59,0,0,0-.59,1h0Z"/><path class="cls-10" d="M158.4,239.4c-2.63-2.2-7.71-5.5-10.93-2.65-0.57.5,0.27,1.33,0.83,0.83,2.59-2.29,7.2.92,9.27,2.65,0.58,0.48,1.41-.34.83-0.83h0Z"/><path class="cls-10" d="M166.76,240.54a2.83,2.83,0,0,0-.47,1.16,0.6,0.6,0,0,0,.72.72,10.81,10.81,0,0,1,6.28,1.06,0.6,0.6,0,0,0,.86-0.35c0.53-2.84-4.84-4-6.68-2.81-0.63.42,0,1.44,0.59,1a3.73,3.73,0,0,1,2.79-.08c0.61,0.15,2.33.66,2.16,1.56l0.86-.35a12.17,12.17,0,0,0-7.18-1.18l0.72,0.72a1.58,1.58,0,0,1,.35-0.88,0.59,0.59,0,0,0-1-.59h0Z"/><path class="cls-10" d="M171,249.76c0.81,2.25.31,4.76,0.18,7.09-0.15,2.75-1.33,5.18-2.29,7.72s-1.61,5.13-3.36,7.27c-0.73.89-1.76,1.49-2.5,2.38a6.91,6.91,0,0,0-1.14,2.93c-0.66,2.8-3.15,3.48-5.7,3.31-1.12-.08-2.21-0.32-3.34-0.31a16,16,0,0,1-4.05-.09c-1.18-.29-2-1.63-2.84-2.41a15.93,15.93,0,0,0-3.32-1.92c-2.21-1.2-3.78-3.32-6.22-4.14-0.72-.24-1,0.89-0.31,1.13a12.46,12.46,0,0,1,3.71,2.44,19.26,19.26,0,0,0,3.33,2.17,12.85,12.85,0,0,1,3.41,2.62,4.49,4.49,0,0,0,2.83,1.43c1.41,0.15,2.81-.07,4.23,0,1.18,0,2.35.32,3.54,0.34a5.89,5.89,0,0,0,5.33-2.71c0.72-1.13.63-2.59,1.29-3.76s2-1.83,2.84-2.84c1.67-2,2.46-4.65,3.27-7.1,0.89-2.69,2.19-5.13,2.45-8,0.22-2.52.67-5.38-.2-7.81-0.26-.71-1.39-0.4-1.13.31h0Z"/><path class="cls-10" d="M129.06,266.58a5.72,5.72,0,0,0,.68,4.29c0.83,1.36,2.11,2.39,3,3.72a6,6,0,0,1,.08,6.31,10,10,0,0,1-2.57,2.34,14,14,0,0,0-2.55,2.48,0.59,0.59,0,0,0,.09.71,20.9,20.9,0,0,0,5.15,4.79c1.5,1,4.1,2,5.52.39,1-1.12,1.86-2.27,2.91-3.34,0.74-.76,1.49-1.5,2.27-2.22,1.24-1.14,2.49-2.27,3.74-3.4,0.56-.51-0.27-1.34-0.83-0.83-2.7,2.43-5.39,4.86-7.85,7.55-0.63.69-1,1.76-2,1.88a5.28,5.28,0,0,1-3.17-1,18.93,18.93,0,0,1-4.91-4.61l0.09,0.71c1.45-1.88,3.76-2.87,5.12-4.82a7.06,7.06,0,0,0,.75-5.63c-0.82-3.46-5.18-5-4.39-9,0.15-.74-1-1.05-1.13-0.31h0Z"/><path class="cls-10" d="M117.29,265.71c1.2,1.81,1.21,4,1.49,6.09a58,58,0,0,0,1.47,7.09,26.25,26.25,0,0,0,2.87,6.3,8.49,8.49,0,0,0,2,2.35c0.9,0.72,2,1.15,2.9,1.83,0.61,0.45,1.19-.57.59-1-0.78-.58-1.66-1-2.48-1.52a7.65,7.65,0,0,1-2.36-2.88,25.34,25.34,0,0,1-2.67-6.55,58,58,0,0,1-1.27-6.79,12,12,0,0,0-1.51-5.5c-0.42-.63-1.44,0-1,0.59h0Z"/><path class="cls-10" d="M137.38,293.54c1.68-.09,3.44-0.19,4.71-1.44,0.8-.79,1.76-3,0.91-4.05-0.49-.58-1.31.25-0.83,0.83-0.16-.19-0.08.31-0.08,0.37a4.05,4.05,0,0,1-.19.87,2.83,2.83,0,0,1-1.09,1.53,6.55,6.55,0,0,1-3.43.71c-0.75,0-.76,1.21,0,1.18h0Z"/><path class="cls-10" d="M139.88,295.16q-0.53-.71-0.5-0.29a3,3,0,0,1-.08.31,7.27,7.27,0,0,1-.42,1.06,9.5,9.5,0,0,1-1.05,1.85,1,1,0,0,1-1.26.6,16,16,0,0,1-4-1A24.09,24.09,0,0,1,121,291a18.07,18.07,0,0,1-3.83-6.73,13.66,13.66,0,0,1-.78-4.14,8.12,8.12,0,0,0-.36-3.35c-0.42-.92-1.14-1.65-1.63-2.53-0.8-1.44-.44-3.34-0.07-4.85a15.8,15.8,0,0,1,.86-2.45c0.08-.18,1.35-2.37,1.5-1.94,0.25,0.71,1.38.41,1.13-.31a1.29,1.29,0,0,0-1.65-.87c-0.86.23-1.4,1.32-1.77,2-1.08,2.12-2,4.86-1.55,7.25a9.46,9.46,0,0,0,1.85,3.66c0.95,1.44.32,3.44,0.63,5a20.58,20.58,0,0,0,3.82,8.8c3.45,4.49,8.45,7,13.82,8.45a18.17,18.17,0,0,0,4.14.85,1.93,1.93,0,0,0,1.51-1,9.13,9.13,0,0,0,1.23-2.09,4.32,4.32,0,0,0,.65-2.14,0.75,0.75,0,0,0-1-.67c-0.74.15-.43,1.28,0.31,1.13h0Z"/><path class="cls-10" d="M149.71,284a45.75,45.75,0,0,1,6.07,6.08,67.64,67.64,0,0,1,4.55,7.5c2.71,4.88,5.6,10.42,3.81,16.14a0.59,0.59,0,0,0,1.13.31c1.78-5.7-.77-11.41-3.53-16.32a84.82,84.82,0,0,0-5-8.22c-1.78-2.47-4.05-4.27-6.26-6.32a0.59,0.59,0,0,0-.83.83h0Z"/><path class="cls-10" d="M114,260.77c-1.54.26-2.95,1-4.49,1.22a49.29,49.29,0,0,0-5.3.78,41.52,41.52,0,0,0-8.77,4,53.93,53.93,0,0,0-7.81,5.4,20.85,20.85,0,0,1-4,2.87,35.09,35.09,0,0,0-4.48,2.28c-2.81,1.91-5.38,4.13-8.29,5.89-1.29.78-2.62,1.43-3.85,2.31a26.45,26.45,0,0,0-3.38,2.93,50,50,0,0,0-5.54,7,59.73,59.73,0,0,0-5.12,8c-0.67,1.41-.9,3.08-1.92,4.3-0.48.58,0.35,1.41,0.83,0.83a10,10,0,0,0,1.57-3.13,19.63,19.63,0,0,1,2.38-4.5c1.72-2.51,3.35-5.08,5.17-7.52a32.5,32.5,0,0,1,6.59-6.8,42.28,42.28,0,0,1,3.85-2.31,47.41,47.41,0,0,0,4.34-3c1.31-1,2.61-2,4-2.9A29.75,29.75,0,0,1,84.16,276a16.22,16.22,0,0,0,3.67-2.54c1.36-1.17,2.79-2.25,4.26-3.28a52.49,52.49,0,0,1,8.43-4.73,26.11,26.11,0,0,1,4.8-1.8c1.72-.39,3.51-0.33,5.23-0.72,1.27-.28,2.44-0.86,3.73-1.08,0.75-.12.43-1.26-0.31-1.13h0Z"/><path class="cls-10" d="M51,308.58a1.42,1.42,0,0,0-1.38,1.33,17.15,17.15,0,0,1-2,4.08c-1.63,3-3.66,5.69-5.45,8.57A31.12,31.12,0,0,0,38.64,331a24.86,24.86,0,0,0-.84,4.52,39.59,39.59,0,0,0,.16,5.34,9.62,9.62,0,0,1-.71,5.33,30,30,0,0,1-2.63,3.92,14.51,14.51,0,0,0-2.49,8.62c0,1.81.1,3.61,0.23,5.41a21.62,21.62,0,0,0,.47,4.89,2.66,2.66,0,0,0,2.3,1.64c2,0.2,3.88,0,5.84.38,0.74,0.14,1.06-1,.31-1.13a25.59,25.59,0,0,0-4-.41c-0.73,0-1.46,0-2.19,0-1.38,0-1.32-1.7-1.39-2.65a83.67,83.67,0,0,1-.4-9.48c0.13-3.1,1.44-5.5,3.22-7.94a12.24,12.24,0,0,0,2.07-3.56c0.18-.61.44-1.17,0.57-1.81a10,10,0,0,0,0-2.33c-0.07-1.49-.2-3-0.24-4.45a20.08,20.08,0,0,1,.55-4.84,31,31,0,0,1,3.09-8.29c1.41-2.59,3.28-4.93,4.81-7.45,0.79-1.3,1.52-2.64,2.21-4a19.58,19.58,0,0,1,1.39-3c0.76,0,.75-1.13,0-1.18h0Z"/><path class="cls-10" d="M34.28,371.69a13.14,13.14,0,0,0-1.76,7.06c0.14,1.42.66,2.76,0.71,4.2S33,385.84,33,387.29a0.59,0.59,0,0,0,1.18,0c0-1.16.17-2.31,0.24-3.47a12.2,12.2,0,0,0-.4-3.57c-0.67-2.92,0-5.33,1.3-8,0.33-.68-0.68-1.27-1-0.59h0Z"/><path class="cls-10" d="M47,375.14c1.59-2.69,3.69-5.52,6.52-7,2.67-1.38,5.78-1.7,8.36-3.31a0.59,0.59,0,0,0-.59-1c-2.76,1.72-6.16,2-9,3.64s-4.77,4.43-6.34,7.08a0.59,0.59,0,0,0,1,.59h0Z"/><path class="cls-10" d="M68.26,316.71c0,2.92.26,5.83,0.19,8.75a24.14,24.14,0,0,1-2,8.67c-2.09,5.22-2.64,11-2.82,16.61-0.2,6.27-.31,12.52-0.73,18.78-0.1,1.51-.21,3-0.35,4.52a22.13,22.13,0,0,0,.3,4.54c0.19,1.61-.13,3.22-0.05,4.83a13.94,13.94,0,0,0,.94,3.93c0.25,0.71,1.39.4,1.13-.31a14.07,14.07,0,0,1-.92-4c-0.07-1.62.21-3.2,0-4.83a48.42,48.42,0,0,1,.14-9.09c0.43-6.24.52-12.47,0.72-18.72,0.18-5.68.86-11.57,3.14-16.82,2.35-5.41,1.53-11.1,1.51-16.82a0.59,0.59,0,0,0-1.18,0h0Z"/><path class="cls-10" d="M87.19,361.18l0,0a0.42,0.42,0,1,0-.07,0,0.53,0.53,0,0,1-.52-0.52q0,0.08,0-.09a0.84,0.84,0,0,1,0,.13,0.59,0.59,0,1,0,1.13.31,0.77,0.77,0,0,0-.14-0.83,0.78,0.78,0,0,0-.93,0,0.59,0.59,0,0,0-.21.8,0.6,0.6,0,0,0,.8.21h0Z"/><path class="cls-10" d="M86.39,360.37a21.42,21.42,0,0,1-10.05,8.19L77,369.43a22.51,22.51,0,0,1,2.4-3.49,43,43,0,0,0,2.28-3.73,13.34,13.34,0,0,1,3.24-3.2,45.89,45.89,0,0,0,3.32-3.33l-0.71.09,0.09,0.06-0.29-.51a1.85,1.85,0,0,0,0,.5c0.1,0.75,1.23.43,1.13-.31v-0.19a0.58,0.58,0,0,0-.29-0.51l-0.09-.06a0.59,0.59,0,0,0-.71.09c-1.1,1.12-2.13,2.3-3.32,3.33A18.28,18.28,0,0,0,81,361.06c-0.85,1.15-1.4,2.48-2.19,3.66A38.32,38.32,0,0,0,76,368.84a0.59,0.59,0,0,0,.66.86A22.73,22.73,0,0,0,87.41,361a0.59,0.59,0,0,0-1-.59h0Z"/><path class="cls-10" d="M85.93,362.05c0.7-.13,1.38-0.39,2.08-0.54,1.12-.23-0.43,1.42-0.67,1.68a13.71,13.71,0,0,0-1.95,3.1c-0.42.83-1.1,2.15-.52,3.05s1.79,0.14,2.37-.37a38.26,38.26,0,0,0,2.64-3c0.14-.15,1.13-0.83,1.22-0.62A3.11,3.11,0,0,1,91,367a32.79,32.79,0,0,0-.69,3.91c-0.2,2.69.06,5.4,0.07,8.09a0.59,0.59,0,0,0,1.1.3,36,36,0,0,1,2.76-5.4,10.89,10.89,0,0,0,2.15-4.82c0.27-1.9.24-3.59,1.63-5.07a27.27,27.27,0,0,0,3-4.7,0.6,0.6,0,0,0-.09-0.71c-0.48-.57-0.6-1.49-1.24-1.93a7.11,7.11,0,0,0-2.28-.77L97.5,357a8.17,8.17,0,0,1,3-.84,2.58,2.58,0,0,0,1.83-2,10,10,0,0,0,.13-4.16c-0.21-1.65-.39-3.26-0.5-4.91-0.23-3.5-.73-7-0.45-10.5s1.9-6.47,3-9.65c1.88-5.55,2.76-12-1-17a23.19,23.19,0,0,0-5.34-4.92,10.72,10.72,0,0,0-6.41-2.26c-6.13.22-10.48,5.87-14.75,9.54l0.92,0.71a32.14,32.14,0,0,0,2.63-6.48A11.7,11.7,0,0,1,84.73,299a19.43,19.43,0,0,1,12.42-3.88c4.2,0.3,8.31,3.54,10.33,7.09,2.68,4.7,1.46,10.72.57,15.75a0.59,0.59,0,0,0,1,.57c3.12-3.57,7.21-6,10.71-9.18s7.05-5.94,11.4-7.53a55.8,55.8,0,0,1,7.28-2,15.72,15.72,0,0,1,7.9.22c2.25,0.66,4.55,1.15,6.3,2.82a26,26,0,0,1,2.29,2.67c0.81,1,1.73,1.94,2.46,3,0.43,0.62,1.44,0,1-.59a54,54,0,0,0-4.4-5.37,11.93,11.93,0,0,0-6-3.3,19.71,19.71,0,0,0-7.7-1,47.18,47.18,0,0,0-8,1.91c-4.71,1.34-8.59,4.16-12.26,7.3-2,1.69-3.95,3.33-6,4.92a40.37,40.37,0,0,0-5.87,5.27l1,0.57c0.93-5.27,2-11.09-.41-16.12a15.47,15.47,0,0,0-10.6-8.08c-4.6-.83-9.75,1-13.54,3.56A12.76,12.76,0,0,0,80,302.83c-1.19,2.51-1.62,5.29-3.12,7.66a0.59,0.59,0,0,0,.92.71c4.1-3.53,8.1-8.78,13.92-9.2,2.61-.19,5,1.44,7,3a17.39,17.39,0,0,1,5,5.75c3,6,0,13.19-2.26,18.88a23,23,0,0,0-1.17,10c0.2,3.25.38,6.57,0.86,9.79,0.2,1.35.89,4.81-.8,5.52-1.18.5-2.4,0.26-3.52,1a0.59,0.59,0,0,0,.14,1.07c0.77,0.21,1.68.18,2.15,0.94a11.08,11.08,0,0,0,.86,1.46l-0.09-.71a27,27,0,0,1-3,4.68,7,7,0,0,0-1.62,4.35A10.48,10.48,0,0,1,93.44,373a39.11,39.11,0,0,0-3,5.69l1.1,0.3c0-2.85-.25-5.69,0-8.53,0.1-1.34.57-2.6,0.74-3.93,0.12-.86.13-2.06-0.93-2.31-1.23-.28-2.27.89-3,1.71-0.48.57-1,1.15-1.47,1.69a6,6,0,0,1-.84.77c-0.32.23-.27,0.29-0.19-0.13a10.09,10.09,0,0,1,2-3.91c0.64-.79,2.34-2.12,1.74-3.32-0.73-1.49-2.84-.37-4-0.15-0.74.14-.43,1.27,0.31,1.13h0Z"/><path class="cls-10" d="M166.18,331.4c1.07-4.89,1.32-10-.3-14.82a14.22,14.22,0,0,0-3.23-5.23c-1.47-1.56-2.76-3.28-4.82-4.08-0.71-.27-1,0.86-0.31,1.13,1.92,0.75,3.19,2.6,4.56,4a13.28,13.28,0,0,1,2.92,5.22c1.36,4.32,1,9,0,13.41-0.16.74,1,1.05,1.13,0.31h0Z"/><path class="cls-10" d="M164.38,343.74c-0.12-3.24-.51-6.59.94-9.61,0.33-.68-0.69-1.28-1-0.59-1.56,3.24-1.23,6.71-1.1,10.2a0.59,0.59,0,0,0,1.18,0h0Z"/><path class="cls-10" d="M159.31,374.58c-6,3-12,6.12-17.94,9.24a0.59,0.59,0,0,0,.59,1c6-3.12,11.92-6.23,17.94-9.24,0.68-.34.08-1.35-0.59-1h0Z"/><path class="cls-10" d="M101.94,360.62c2.44-.65,12,0.74,10.41-4.29l-0.72.72c2.26,0.63,4.06,2.41,6.51,1.44a25.6,25.6,0,0,1,4.17-1.38c1.3-.27,2.67-0.13,3.89-0.74,5.58-2.77,11.66-4.72,17.49-6.92q2.12-.8,4.23-1.64a11.62,11.62,0,0,1,2.12-.52,18.47,18.47,0,0,0,2.49-.88c2.93-1,5.93-1.86,8.94-2.66a9.49,9.49,0,0,1,2.35-.55,1.53,1.53,0,0,1,1,1,37.39,37.39,0,0,1,.11,4.75c0,1.39-.23,2.76-0.17,4.15a16,16,0,0,1-.16,4.7,0.59,0.59,0,0,0,1.13.31,13.56,13.56,0,0,0,.25-4.22,37.16,37.16,0,0,1,.1-4.51,37.92,37.92,0,0,0-.05-4.76,2.88,2.88,0,0,0-1.29-2.42c-1-.61-2.62.16-3.57,0.41-1.58.42-3.15,0.85-4.72,1.31s-3.1,1-4.63,1.5-3.11.83-4.61,1.42c-6,2.39-12.18,4.51-18.16,7.05a26.2,26.2,0,0,1-4.3,1.72c-1.47.33-2.92,0.35-4.38,0.8s-3,1.51-4.62,1.1c-1.33-.34-2.46-1.22-3.79-1.59a0.59,0.59,0,0,0-.72.72c1,3.32-7.81,2.37-9.58,2.85a0.59,0.59,0,0,0,.31,1.13h0Z"/><path class="cls-10" d="M166,343.9a76.89,76.89,0,0,0,7.05-3.52,0.59,0.59,0,0,0-.59-1,74,74,0,0,1-6.77,3.4c-0.69.29-.39,1.42,0.31,1.13h0Z"/><path class="cls-10" d="M198.24,350.74a1.69,1.69,0,0,1-.79.06,0.59,0.59,0,0,0-.59.59,0.6,0.6,0,0,0,.59.59,2.71,2.71,0,0,0,1.1-.1,0.59,0.59,0,1,0-.31-1.13h0Z"/><path class="cls-10" d="M196.64,351.41c-3.64-.47-7.14-1.79-10.85-1.39a9.55,9.55,0,0,0-4,1.53c-0.57.39-1.12,0.82-1.65,1.26a18,18,0,0,0-1.56,1.85c-0.82.89-1.07,2.08-1.73,3.05a5.9,5.9,0,0,1-3.11,2.14,17.77,17.77,0,0,1-7.39.33c-0.75-.08-0.75,1.1,0,1.18,4.31,0.44,9.9.47,12.08-4.06a14.88,14.88,0,0,1,2.26-3.39,10.54,10.54,0,0,1,4.56-2.61c1.73-.6,4.08-0.1,5.8.24s3.71,0.82,5.6,1.06c0.75,0.1.74-1.08,0-1.18h0Z"/><path class="cls-10" d="M64,388.81c2.46,3.33,2.76,8.79,7.41,10,3,0.79,6.25-.2,9.26-0.59,3.58-.47,7.15-0.91,10.73-1.4,3.74-.51,7.5-0.51,11.26-0.76a44.89,44.89,0,0,0,10.35-2.2,65.09,65.09,0,0,1,10.62-2.66c3.3-.44,6.56-0.74,9.67-2s5.44-3.5,8.4-4.84c0.69-.31.09-1.32-0.59-1-3.12,1.41-5.66,3.79-8.86,5s-6.68,1.35-10.05,1.89A75.9,75.9,0,0,0,111.83,393a43.76,43.76,0,0,1-11,2c-3.6.17-7.14,0.33-10.71,0.83s-7.21.87-10.8,1.42c-2.9.45-6.55,1.5-9.23-.22-1.9-1.23-2.71-3.86-3.56-5.83a14.63,14.63,0,0,0-1.6-3c-0.45-.6-1.47,0-1,0.59h0Z"/><path class="cls-10" d="M119.38,413.45c3.85,1,7.79-.24,11.65.54a35.81,35.81,0,0,1,6,2.27c2,0.8,4,1.57,6,2.23,3.62,1.17,7.52,2.06,11.34,1.48a14.76,14.76,0,0,0,5.07-1.68,7.26,7.26,0,0,0,2.66-2,0.59,0.59,0,0,0-1-.59c-0.5.85-2,1.53-2.88,2a13.79,13.79,0,0,1-5.5,1.34c-3.73.22-7.49-.93-11-2.15-1.75-.61-3.48-1.31-5.2-2a32.33,32.33,0,0,0-5.54-2c-3.73-.76-7.55.49-11.26-0.46a0.59,0.59,0,0,0-.31,1.13h0Z"/><path class="cls-10" d="M144.62,424.89c3-2.42,7-3,10.72-2.84a0.59,0.59,0,0,0,0-1.18c-4.1-.14-8.28.56-11.56,3.19-0.59.47,0.25,1.3,0.83,0.83h0Z"/><path class="cls-10" d="M142.66,429a4.49,4.49,0,0,1,1-3.18c0.47-.58-0.36-1.42-0.83-0.83a5.7,5.7,0,0,0-1.36,4c0,0.75,1.22.76,1.18,0h0Z"/><path class="cls-10" d="M109.49,435.67c-1.94-.34-2.09,2-2,3.4,0.24,2.31,2.19,3.32,4.29,3.71,3.51,0.65,7.07.42,10.46,1.69a17.44,17.44,0,0,1,8.65,6.73,0.59,0.59,0,0,0,1-.59c-2.82-4.59-8.34-7.65-13.61-8.3-2.61-.32-5.67-0.09-8.11-1.22a2.53,2.53,0,0,1-1.53-2.23c0-.35-0.14-2.16.49-2.05s1.06-1,.31-1.13h0Z"/><path class="cls-10" d="M33,406.22c0.85-1.36,1.6-2.73,2.57-4s2-2.69,3.06-4,1.94-2.68,2.84-4.07c0.45-.7.87-1.41,1.28-2.13a11.36,11.36,0,0,1,1.38-2.42,5.45,5.45,0,0,0,1-1.79,7.75,7.75,0,0,1,1.56-1.66,11.63,11.63,0,0,0,2.32-3,5,5,0,0,0,.25-3.61,7.45,7.45,0,0,1-.58-2.31,1.93,1.93,0,0,0-.49-1.5c-0.46-.6-1.29.24-0.83,0.83a3.58,3.58,0,0,1,.22,1.45c0.14,0.75.45,1.47,0.64,2.2,0.42,1.56-.46,3-1.44,4.14-0.78.91-1.76,1.66-2.48,2.62a14.35,14.35,0,0,1-1,1.82,7.49,7.49,0,0,0-1.16,1.93,59.42,59.42,0,0,1-5,7.6c-0.93,1.25-1.88,2.48-2.82,3.73s-1.54,2.44-2.31,3.68a0.59,0.59,0,0,0,1,.59h0Z"/><path class="cls-10" d="M32.16,389.63c0,2.35.05,4.69-.08,7s-0.57,4.73-.65,7.12a0.59,0.59,0,0,0,1.18,0c0.08-2.38.49-4.74,0.65-7.12s0.08-4.69.08-7a0.59,0.59,0,0,0-1.18,0h0Z"/><path class="cls-10" d="M33.6,411.08c1.53,3.31,3.57,6.33,5.06,9.67a81.26,81.26,0,0,0,4.72,9.59,20.25,20.25,0,0,0,6,6.47,16.19,16.19,0,0,0,8.77,2.33c3.75,0.07,7.48-.68,11.21-1s7.53-.43,11.29-0.66a52,52,0,0,1,5.39-.19c1.95,0.08,3.87.52,5.8,0.72a20.88,20.88,0,0,0,8.81-1,22.57,22.57,0,0,0,11.47-9.07c0.42-.63-0.6-1.22-1-0.59A21.16,21.16,0,0,1,96,436.79c-3.54.42-6.94-.58-10.46-0.72a52.32,52.32,0,0,0-5.39.24c-2,.12-3.92.21-5.87,0.31-3.77.2-7.49,0.6-11.23,1s-7.34.6-10.79-.67c-6.46-2.37-9.51-9.83-12.06-15.63-0.82-1.86-1.64-3.71-2.63-5.49s-2.09-3.5-3-5.36c-0.32-.69-1.33-0.09-1,0.59h0Z"/><path class="cls-10" d="M24.44,437.1c-0.41-1.68,1.09-3.05,2.26-4a25.09,25.09,0,0,1,4-2.57,28.5,28.5,0,0,1,6.39-2.15c1.3-.35,3.1-0.63,4.1-1.61a0.59,0.59,0,0,0-.83-0.83,5.49,5.49,0,0,1-2.19.91c-0.95.29-1.91,0.54-2.87,0.81a27.35,27.35,0,0,0-6.21,2.41c-2.48,1.41-6.64,3.91-5.81,7.34a0.59,0.59,0,0,0,1.13-.31h0Z"/><path class="cls-10" d="M25.55,438.54c3.42,1,6.92.55,10.42,0.6,3.66,0.05,7.3,1.29,10.8,2.24A57.08,57.08,0,0,0,57.55,443c3.65,0.28,7.41.26,11,1,6.07,1.3,11.57,4.72,18,4.27,3.59-.25,7.07-1.4,10.63-1.86A17.78,17.78,0,0,1,104,447a32.69,32.69,0,0,0,7.71,1.05,22.65,22.65,0,0,0,9.78-2.4c0.68-.33.09-1.34-0.59-1a21.81,21.81,0,0,1-9.86,2.23,32.62,32.62,0,0,1-7.19-1.12,18.16,18.16,0,0,0-6.65-.45c-3.58.41-7,1.52-10.63,1.86-6.44.61-12.25-3.17-18.4-4.38a86.93,86.93,0,0,0-10.57-.92A58.19,58.19,0,0,1,46.26,440a45.91,45.91,0,0,0-9.87-2c-3.54-.17-7.06.42-10.54-0.57a0.59,0.59,0,0,0-.31,1.13h0Z"/><path class="cls-10" d="M22.5,438.13a2.3,2.3,0,0,0,.09-0.5,0.59,0.59,0,0,0-1.15-.16,23.41,23.41,0,0,0-.45,3.28c-0.18,1.41-.31,2.84-0.41,4.26a23.53,23.53,0,0,0,.61,7.92,23,23,0,0,1,.83,3.7,14.62,14.62,0,0,1-.16,3.14c-0.13,1.19-.55,3.29.61,4.11,0.62,0.44,1.21-.58.59-1-0.36-.26-0.15-1.62-0.13-2,0-.67.13-1.34,0.2-2a16.1,16.1,0,0,0-.81-6.24,22.89,22.89,0,0,1-.56-7.61c0.07-1.15.2-2.3,0.32-3.44a24.64,24.64,0,0,1,.5-3.78l-1.15-.16,0,0.19a0.59,0.59,0,0,0,1.13.31h0Z"/><path class="cls-10" d="M77.32,469.66a50.19,50.19,0,0,1,15.24,1.85c2.38,0.64,4.59,2,6.94,2.81,2.09,0.7,4.79.13,6.94-.15a71.26,71.26,0,0,0,13.7-3.44c2.3-.78,4.57-1.64,6.85-2.49l3.63-1.37a11.5,11.5,0,0,0,1.15-.4,15,15,0,0,1,1.29-.8c0.7-.27.39-1.41-0.31-1.13s-1.3.77-2,1.05l-3.23,1.22c-2.27.86-4.55,1.71-6.84,2.52A75.62,75.62,0,0,1,106.7,473c-2.51.37-5.28,0.81-7.7-.06s-4.57-2.13-7-2.76a49.66,49.66,0,0,0-14.67-1.65,0.59,0.59,0,0,0,0,1.18h0Z"/><path class="cls-10" d="M52.81,469.21c5.25,1.09,10.59.46,15.9,0.77,0.76,0,.75-1.13,0-1.18-5.2-.3-10.45.34-15.58-0.73-0.74-.15-1.05,1-0.31,1.13h0Z"/><path class="cls-10" d="M24.69,465.9c1.52,0.17,3,.67,4.47.93a17.19,17.19,0,0,0,4.65-.28,14.46,14.46,0,0,1,5.05.07,41.51,41.51,0,0,0,4.18.94c0.75,0.09.74-1.08,0-1.18-2.94-.37-5.49-1.64-8.51-1.1a16.71,16.71,0,0,1-5.44.35c-1.49-.25-2.91-0.74-4.41-0.91-0.75-.08-0.74,1.09,0,1.18h0Z"/><path class="cls-10" d="M117.18,413c-1.57,1.59-2.06,4.12-2.49,6.22-0.49,2.34-1,4.73-1.33,7.09-0.1.74,1,1.06,1.13,0.31,0.29-2.08.78-4.16,1.16-6.23s0.77-5,2.36-6.56a0.59,0.59,0,0,0-.83-0.83h0Z"/><path class="cls-10" d="M118.73,411.14l0,0a0.59,0.59,0,0,0-.83.83l0,0a0.59,0.59,0,0,0,.83-0.83l0,0a0.59,0.59,0,0,0-.83.83l0,0a0.59,0.59,0,0,0,.83-0.83h0Z"/><path class="cls-10" d="M162.75,413.29a76.67,76.67,0,0,0,0-7.88c-0.08-2.77.11-5.47,0.23-8.24,0.22-5.06-1.6-10.1-.47-15.14a0.59,0.59,0,0,0-1.13-.31c-1.08,4.86.37,9.75,0.44,14.63,0,2.71-.32,5.41-0.26,8.13,0.06,2.94.22,5.87,0,8.81-0.06.76,1.12,0.75,1.18,0h0Z"/><path class="cls-10" d="M83.63,179.11c6.75-.61,13.06-3.2,19.47-5.2,3.16-1,6.72-2.15,10.06-2.15,1.76,0,3.52.09,5.27,0.18,4.55,0.23,9.1.55,13.65,0.89,2.6,0.19,5.24.53,7.85,0.57a0.59,0.59,0,0,0,0-1.18c-2.53,0-5.08-.36-7.59-0.55-4.55-.33-9.1-0.65-13.65-0.89-1.79-.09-3.57-0.18-5.36-0.19-3.11,0-6.37,1-9.33,1.82-6.74,2-13.3,4.88-20.36,5.52-0.75.07-.76,1.24,0,1.18h0Z"/><path class="cls-10" d="M195,139.68c-6.78,2.4-14.38,2.29-21.48,2.08s-14.33-.74-21.48,0-13.73,3.42-20.36,6a199.51,199.51,0,0,0-19.4,8.78c-1.43.75-2.84,1.52-4.24,2.31-0.77.43-1.54,0.88-2.3,1.33s-1.33,1-2.07,1.46a92.74,92.74,0,0,0-7.9,5.13A59.78,59.78,0,0,0,83.13,179c-0.46.6,0.56,1.19,1,.59a61,61,0,0,1,14.44-13.37c1.3-.89,2.63-1.73,4-2.55,0.68-.41,1.36-0.82,2-1.21,0.87-.51,1.61-1.2,2.49-1.71,3.15-1.84,6.38-3.54,9.66-5.16,6.53-3.22,13.27-6,20.08-8.55a75.48,75.48,0,0,1,10.29-3.34A57.79,57.79,0,0,1,158,142.57c6.31-.16,12.61.36,18.92,0.44,6.09,0.08,12.57-.14,18.37-2.19,0.71-.25.4-1.39-0.31-1.13h0Z"/><path class="cls-10" d="M137.78,176.58c4.54-2.22,9.57-2.93,14.5-3.79,5.2-.91,10.36-2.11,15.56-3s10.48-1.66,15.74-2.3c1.07-.13,2.16-0.12,3.22-0.25,0.51-.06,1-0.31,1.47-0.37,0.75-.09,1.51-0.11,2.26-0.18,2.71-.25,5.41-0.61,8.14-0.64A0.59,0.59,0,0,0,199,165a2.64,2.64,0,0,0-1.43-.72,0.61,0.61,0,0,0-.59.59c-0.09.76,1.17,1.18,1.72,1.23a0.59,0.59,0,0,0,.42-1c-6.17-5.89-4.59-16-3.35-23.56,0.12-.74-1-1.06-1.13-0.31-0.35,2.14-.7,4.19-0.87,6.36a51.71,51.71,0,0,0-.15,6.82c0.23,4.28,1.51,8.49,4.68,11.52l0.42-1a0.85,0.85,0,0,1-.37-0.12c-0.33-.17-0.13-0.27-0.17.07l-0.59.59a3.67,3.67,0,0,1,.83.56l0.3-1.09c-2.73,0-5.43.37-8.14,0.64A16.07,16.07,0,0,0,187,166a20.84,20.84,0,0,1-3.88.38q-7.83.95-15.6,2.28c-5.35.92-10.64,2.15-16,3.09-4.9.86-9.84,1.63-14.36,3.84-0.68.33-.08,1.35,0.59,1h0Z"/><path class="cls-10" d="M200.63,163.12c2.39,5.24,7.86,8.28,13.22,9.76a138,138,0,0,0,21.74,3.77c7.39,0.8,14.84,1.14,22.25,1.69s14.94,1.24,22.35,2.37a133.63,133.63,0,0,1,21.13,4.89,0.59,0.59,0,0,0,.57-1,6.14,6.14,0,0,0-2.16-1,4.23,4.23,0,0,0-2.1-.5,0.59,0.59,0,0,0-.41.72,1.15,1.15,0,0,0,.81.6c1.08,0.43,2.19.78,3.29,1.15a0.59,0.59,0,0,0,.57-1l-1.87-2a0.59,0.59,0,0,0-.83.83l1.87,2,0.57-1c-0.87-.29-1.74-0.59-2.61-0.9l-0.68-.25c-0.35-.14-0.14-0.19,0,0.22l-0.41.72c-0.33.12-.06,0,0.26,0.12s0.72,0.21,1.07.33a6.06,6.06,0,0,1,1.79.74l0.57-1c-14-4.55-28.72-6.15-43.35-7.27-14.92-1.14-30.05-1.59-44.57-5.58-4.92-1.35-9.9-4.32-12.08-9.1-0.31-.69-1.33-0.09-1,0.59h0Z"/><path class="cls-10" d="M196.55,140.28a0.59,0.59,0,0,0,0-1.18,0.59,0.59,0,0,0,0,1.18h0Z"/><path class="cls-10" d="M196.55,140.28a0.59,0.59,0,0,0,0-1.18,0.59,0.59,0,0,0,0,1.18h0Z"/><path class="cls-10" d="M198.38,140.81c0.57-.35,1-0.22,1.43-0.82l-1-.59c-2.74,4.13-1.4,9.79-1.75,14.45-0.17,2.28-.46,4.68.91,6.66a16.91,16.91,0,0,0,2.23,2.43,8.34,8.34,0,0,1,2.22,2.61c0.27,0.7,1.41.4,1.13-.31-0.68-1.75-2.4-3-3.66-4.26a5.83,5.83,0,0,1-1.67-2.66,13.5,13.5,0,0,1,0-3.77c0.15-2.34.15-4.62,0.11-7,0-2.59,0-5.37,1.53-7.6,0.43-.64-0.57-1.19-1-0.59a3.91,3.91,0,0,1-1,.4,0.59,0.59,0,0,0,.59,1h0Z"/><path class="cls-10" d="M199.93,140.81c4.59,3.35,10.67,4.23,16.15,5,3.17,0.47,6.34,1,9.53,1.26,3.71,0.31,7.44.38,11.15,0.55,7.48,0.34,14.81,1.37,21.66,4.55,5.73,2.66,10.77,6.56,16,10,2.38,1.54,4.94,2.73,7.43,4.06a24.75,24.75,0,0,1,6.92,5.41c2.18,2.42,4.23,4.95,6.45,7.33,1.07,1.15,2.24,2.19,3.29,3.35s2.4,2.12,3.44,3.36c0.49,0.58,1.31-.25.83-0.83-1-1.24-2.32-2.2-3.44-3.36-1.29-1.32-2.61-2.61-3.87-4-2.38-2.59-4.59-5.33-7-7.92a25.63,25.63,0,0,0-7.4-5.08,86.18,86.18,0,0,1-8.43-4.9c-5.17-3.45-10.21-7-16-9.43-6.78-2.79-14.06-3.47-21.32-3.78-3.42-.14-6.85-0.24-10.26-0.53-3.05-.26-6.08-0.77-9.11-1.23-5.27-.79-11.12-1.65-15.52-4.88-0.61-.45-1.2.57-0.59,1h0Z"/><path class="cls-10" d="M238.78,178.44c5.81,3.73,11.62,7.29,15.74,13,3.66,5.06,6.11,10.85,10.07,15.72,8.6,10.59,13.7,23.4,20.12,35.31,1.81,3.36,3.75,6.65,5.88,9.82,0.42,0.63,1.44,0,1-.59-7.53-11.23-12.4-23.93-19.34-35.5a89.91,89.91,0,0,0-5.72-8.44,78.68,78.68,0,0,1-5.53-7.9c-1.59-2.7-3.08-5.47-4.82-8.08a35.62,35.62,0,0,0-6.28-7.06,87.7,87.7,0,0,0-10.53-7.27,0.59,0.59,0,0,0-.59,1h0Z"/><path class="cls-10" d="M292.82,251.35c4-8.87,12.14-15,20.68-19.15a76.85,76.85,0,0,1,27.77-7.48l-0.42-1a5.2,5.2,0,0,1-1.1,1.13,0.59,0.59,0,0,0,.59,1,6.16,6.16,0,0,0,1.34-1.32,0.59,0.59,0,0,0-.42-1A79.27,79.27,0,0,0,313.19,231c-8.81,4.21-17.27,10.61-21.39,19.71-0.31.68,0.7,1.28,1,.59h0Z"/><path class="cls-10" d="M262.94,182.8c3.81,0.35,7.57,1,11.34,1.65,3.56,0.58,7.1.92,10.7,1.17,6.95,0.48,13.33,3.66,19.46,6.71a89.73,89.73,0,0,1,17.44,10.82,79.93,79.93,0,0,1,7.25,6.95c2,2.15,4.34,4,6.54,6,2.6,2.35,5.59,5,6.94,8.34l1.07-.45a2.25,2.25,0,0,0-1-1.05c-0.71-.26-1,0.87-0.31,1.13a3,3,0,0,1,.34.51c0.34,0.54,1.34.19,1.07-.45-2.08-5.1-7.1-8.69-11.05-12.26-2.32-2.1-4.37-4.47-6.64-6.62a72.09,72.09,0,0,0-7.62-6.24c-5.53-4-11.67-7-17.81-9.86a59.7,59.7,0,0,0-9.13-3.55,50.84,50.84,0,0,0-10-1.38c-6.24-.51-12.34-2-18.57-2.61-0.75-.07-0.75,1.11,0,1.18h0Z"/><path class="cls-10" d="M194.89,255.48a16.92,16.92,0,0,0,8.86-1.28,39.28,39.28,0,0,1,10.45-2.74c3.7-.44,7.43-0.57,11.14-0.89a67.78,67.78,0,0,0,10.9-1.79,90.18,90.18,0,0,1,22.57-2.64,49.47,49.47,0,0,1,11.37,1c3.57,0.87,7,2.39,10.5,3.59a31.15,31.15,0,0,0,5.35,1.5c1.09,0.17,2.43.37,3.31-.46a0.59,0.59,0,0,0-.83-0.83c-0.56.53-1.95,0.19-2.58,0.09a19.08,19.08,0,0,1-2.5-.62c-1.79-.54-3.56-1.19-5.33-1.82-3.5-1.24-6.94-2.65-10.64-3.15a85.11,85.11,0,0,0-22.14.36A100.2,100.2,0,0,0,234.62,248a70,70,0,0,1-11.55,1.6c-3.58.26-7.16,0.44-10.71,0.95a37.08,37.08,0,0,0-5,1.06c-1.74.5-3.35,1.27-5,1.91a15.15,15.15,0,0,1-7.48.82c-0.75-.1-0.74,1.08,0,1.18h0Z"/><path class="cls-10" d="M90.54,242.75c4-.61,7.82-1.82,11.77-2.48,3.72-.62,8.9-1.27,11.83,1.72a0.59,0.59,0,0,0,.83-0.83c-2.95-3-7.75-2.74-11.58-2.23-4.45.59-8.73,2-13.16,2.69-0.75.12-.43,1.25,0.31,1.13h0Z"/><path class="cls-10" d="M191.37,257.57c-0.7,12.13-1.47,24.25-2.18,36.37-0.36,6-.76,12-1,18.06a73,73,0,0,0,.15,9c0.12,1.41.31,2.8,0.55,4.19a19.74,19.74,0,0,0,.58,3.8c0.26,0.7,1.4.4,1.13-.31a18.32,18.32,0,0,1-.5-3.35c-0.29-1.58-.5-3.17-0.63-4.78a73,73,0,0,1-.09-9c0.24-6,.65-12.05,1-18.07,0.71-12,1.47-23.94,2.16-35.91,0-.76-1.13-0.75-1.18,0h0Z"/><path class="cls-10" d="M190.77,217c-0.13-2.18-.3-4.35-0.36-6.54a18.75,18.75,0,0,1,.58-6.25,1.92,1.92,0,0,1,1.15-1.38,3.65,3.65,0,0,1,2.56.53c1.42,1.11.64,3.91,0.34,5.34a42.36,42.36,0,0,0-1.18,6.12c-0.1,1.58-.18,3.15-0.26,4.73-0.24,4.67-.44,9.35-0.66,14-0.29,6.28-.53,12.56-0.91,18.84,0,0.76,1.13.75,1.18,0,0.53-8.76.85-17.54,1.25-26.3,0.18-3.76.34-7.53,0.57-11.29a46.44,46.44,0,0,1,1.24-6.32c0.34-1.67.67-3.59-.12-5.18-0.69-1.4-2.49-1.69-3.89-1.67s-2.17,1.44-2.53,2.64a20.65,20.65,0,0,0-.5,6.19c0,2.18.22,4.36,0.36,6.54,0,0.75,1.22.76,1.18,0h0Z"/><path class="cls-10" d="M173,252.25a48.19,48.19,0,0,1,13.73,2,0.59,0.59,0,0,0,.31-1.13,49.36,49.36,0,0,0-14-2,0.59,0.59,0,0,0,0,1.18h0Z"/><path class="cls-10" d="M193.23,351.86c-0.36,1.48-1.68,1.73-3,2a8.69,8.69,0,0,0-3.46,1.06l0.8,0.21a9.07,9.07,0,0,1-1.45-4.29,0.59,0.59,0,0,0-1.18,0,10.31,10.31,0,0,0,1.61,4.89,0.59,0.59,0,0,0,.8.21c2.28-1.51,6.18-.33,7-3.72a0.59,0.59,0,0,0-1.13-.31h0Z"/><path class="cls-10" d="M184.87,329.66q0.28-14.73.9-29.45,0.31-7.49.69-15c0.25-4.89.24-9.85,1-14.69,0.12-.74-1-1.06-1.13-0.31a127.4,127.4,0,0,0-1,14.07q-0.39,7.48-.7,15-0.64,15.19-.94,30.39a0.59,0.59,0,0,0,1.18,0h0Z"/><path class="cls-10" d="M90.36,241.26c1.22-11.83,11.21-20.31,18.38-28.88,7.57-9.05,12.73-20,21.44-28.13a36.53,36.53,0,0,1,6.08-4.59,0.59,0.59,0,0,0-.59-1c-10.27,6.18-16.3,17-23,26.54a147,147,0,0,1-10.94,13.36c-3.77,4.25-7.48,8.67-10,13.81a26.33,26.33,0,0,0-2.59,8.91c-0.08.75,1.1,0.75,1.18,0h0Z"/><path class="cls-10" d="M42.16,211.39c6.68-5.87,11.13-13.89,18.22-19.33,3.65-2.8,7.5-5.39,11.25-8.06A118.14,118.14,0,0,1,83,176.6a0.59,0.59,0,0,0-.59-1A119.32,119.32,0,0,0,71,183c-3.86,2.74-7.81,5.42-11.56,8.3C52.41,196.7,48,204.71,41.33,210.56c-0.57.5,0.26,1.33,0.83,0.83h0Z"/><path class="cls-10" d="M47.86,210c5,0,9.91,2.13,14.29,4.36A61,61,0,0,1,73.54,222c2.84,2.38,5.59,4.89,8.18,7.53a43.45,43.45,0,0,1,3.74,4.22c0.65,0.86,1.65,2.08,1.59,3.23,0,0.76,1.13.75,1.18,0A5.54,5.54,0,0,0,87,233.84a34.38,34.38,0,0,0-3.65-4.36,107.28,107.28,0,0,0-8.81-8.2,63.6,63.6,0,0,0-11.75-7.91c-4.54-2.35-9.69-4.47-14.89-4.52a0.59,0.59,0,0,0,0,1.18h0Z"/><path class="cls-10" d="M189.56,179c1.2,6.95-.6,14,0,21a0.6,0.6,0,0,0,.59.59,39.06,39.06,0,0,1,8.1.59,0.59,0.59,0,0,0,.66-0.86,8.59,8.59,0,0,1-1.59-5.26,12,12,0,0,1,1.44-4.39c1.22-2.52,2.75-5.17,2.29-8.08-0.7-4.46-9-6.22-11.42-2.45a0.59,0.59,0,0,0,1,.59c1.22-1.88,4.32-1.54,6.13-.94a5.09,5.09,0,0,1,2.76,2.06,5,5,0,0,1,.13,3.79c-0.66,2.54-2.28,4.73-3.09,7.23a9.22,9.22,0,0,0,1.32,8.05l0.66-.86a40.57,40.57,0,0,0-8.42-.63l0.59,0.59c-0.59-7.09,1.2-14.2,0-21.27-0.13-.75-1.26-0.43-1.13.31h0Z"/><path class="cls-10" d="M179.31,170.7a74,74,0,0,0,10.52,9c0.63,0.43,1.22-.59.59-1a72.42,72.42,0,0,1-10.28-8.78,0.59,0.59,0,0,0-.83.83h0Z"/><path class="cls-10" d="M184.82,170.09c3,2.76,4.61,6.77,7.65,9.48,0.56,0.5,1.4-.33.83-0.83-3-2.71-4.63-6.72-7.65-9.48a0.59,0.59,0,0,0-.83.83h0Z"/><path class="cls-10" d="M191.37,170a26.41,26.41,0,0,0,1.25,8.72c0.26,0.7,1.4.4,1.13-.31a25.31,25.31,0,0,1-1.2-8.41,0.59,0.59,0,0,0-1.18,0h0Z"/><path class="cls-10" d="M196,170.59v7.34a0.59,0.59,0,0,0,1.18,0v-7.34a0.59,0.59,0,0,0-1.18,0h0Z"/><path class="cls-10" d="M197.88,178a27.6,27.6,0,0,1,7.84-6.95,0.59,0.59,0,0,0-.59-1,28.43,28.43,0,0,0-8.07,7.13c-0.46.59,0.36,1.43,0.83,0.83h0Z"/><path class="cls-10" d="M199.3,181.5c4.58-2.18,8.49-5.43,12.36-8.66,0.58-.49-0.25-1.31-0.83-0.83-3.8,3.17-7.62,6.34-12.12,8.48-0.68.33-.09,1.34,0.59,1h0Z"/><path class="cls-10" d="M195.3,136c0.21-1.64-.42-13.42,3-11.84,0.87,0.4,1,1.74,1.12,2.56a24,24,0,0,1,0,4c-0.14,2.3-.73,5-0.11,7.24a0.59,0.59,0,0,0,1.13-.31,11.6,11.6,0,0,1-.08-3.73c0.11-1.65.26-3.29,0.3-4.94,0-2,.1-5.62-2.46-6.1s-3.47,3-3.73,4.94c-0.36,2.71,0,5.46-.39,8.15-0.1.75,1.08,0.74,1.18,0h0Z"/><path class="cls-10" d="M148.81,176.91c3.91-2.66,8.76-3.4,13.35-4s9.11-.9,13.44-2.36c0.71-.24.41-1.38-0.31-1.13-8.72,3-19.17,1.12-27.06,6.48-0.62.42,0,1.44,0.59,1h0Z"/><path class="cls-10" d="M214.4,173c2.35,4.16,7.82,5.82,12.12,7,5,1.32,10.09,1.92,15.15,2.79l-0.41-.41-0.16.65a0.59,0.59,0,0,0,.83.83,1.57,1.57,0,0,0,.46-1.8,0.59,0.59,0,0,0-.41-0.41c-4.78-.82-9.58-1.41-14.29-2.57-4.23-1-10-2.55-12.28-6.65a0.59,0.59,0,0,0-1,.59h0Z"/><path class="cls-10" d="M176.26,334.51c0.88-2.22,1.92-6.39,4.87-6.5a0.59,0.59,0,0,0,0-1.18c-3.68.15-4.89,4.56-6,7.37-0.28.7,0.86,1,1.13,0.31h0Z"/><path class="cls-10" d="M172.58,341.3c1.75-1.84,2.64-4.19,3.57-6.51,0.28-.7-0.85-1-1.13-0.31a18,18,0,0,1-3.27,6,0.59,0.59,0,0,0,.83.83h0Z"/><path class="cls-10" d="M181,332.41a35,35,0,0,1,6.48-2.36c2.15-.57,4.76-1.19,6.94-0.44l-0.43-.57c0,3.91,1.76,7.18,3.51,10.57a19,19,0,0,1,1.92,5.16,12.77,12.77,0,0,1-.92,7c-0.27.71,0.86,1,1.13,0.31a14.26,14.26,0,0,0-.44-11.64c-1.71-3.75-4-7.08-4-11.36a0.6,0.6,0,0,0-.43-0.57c-2.19-.75-4.74-0.23-6.93.28a34.68,34.68,0,0,0-7.39,2.64c-0.68.33-.08,1.35,0.59,1h0Z"/><path class="cls-10" d="M115.69,426.46c3.27-2.93,7.86-3.18,12-2.73A47.61,47.61,0,0,1,140,427.09c0.71,0.28,1-.86.31-1.13a49,49,0,0,0-13.29-3.46c-4.28-.42-8.88.18-12.19,3.14-0.57.51,0.27,1.33,0.83,0.83h0Z"/><path class="cls-10" d="M162.58,401.17a61.67,61.67,0,0,0,19.22-21.41c4.21-7.84,6.36-17.74.73-25.46-0.44-.61-1.46,0-1,0.59,5.55,7.61,3.13,17.19-1,24.84A60.06,60.06,0,0,1,162,400.16c-0.62.42,0,1.44,0.59,1h0Z"/><path class="cls-10" d="M118.1,412.54a2.76,2.76,0,0,0,1.78-.3,0.74,0.74,0,0,0,.18-0.82,2.64,2.64,0,0,0-.61-0.83,0.59,0.59,0,1,0-.83.83l0.25,0.26s0.11,0.14,0,0L119,411.8a0.26,0.26,0,1,0,0,0,0.35,0.35,0,1,0,0-.06,0.44,0.44,0,0,1,.13-0.31c0,0.06.15-.1,0,0,0.19-.1,0,0-0.06,0s0.16,0,0,0h-0.16c-0.26,0-.53,0-0.79,0a0.59,0.59,0,1,0,0,1.18h0Z"/><path class="cls-10" d="M118.19,412.57c1-3.18,3.26-5.74,4.23-8.93a0.59,0.59,0,0,0-1.13-.31c-1,3.18-3.26,5.74-4.23,8.93a0.59,0.59,0,0,0,1.13.31h0Z"/><path class="cls-10" d="M128.53,353.82a15.49,15.49,0,0,1,2.29-5.5c0.44-.62-0.58-1.2-1-0.59a16.33,16.33,0,0,0-2.41,5.78,0.59,0.59,0,0,0,1.13.31h0Z"/><path class="cls-10" d="M152.36,463.13c4.44-5.56-2.33-12.75-5.57-17.07a40.08,40.08,0,0,1-2.83-4.24,33.3,33.3,0,0,1-2.41-5.88c-1.28-3.8-2.48-7.71-5.17-10.78-0.5-.57-1.33.26-0.83,0.83,2.54,2.9,3.67,6.67,4.87,10.26a34.07,34.07,0,0,0,4.49,9.22c2,2.77,4.19,5.37,5.92,8.32,1.5,2.56,2.78,5.89.7,8.51-0.47.59,0.36,1.42,0.83,0.83h0Z"/><path class="cls-10" d="M131.22,453.61c3.93,7.7,12,11.11,20.09,12.49,0.74,0.13,1.06-1,.31-1.13-7.85-1.33-15.59-4.51-19.39-12-0.34-.68-1.36-0.08-1,0.59h0Z"/><path class="cls-10" d="M142.84,457.58c2.13-1.49,3.76-3.64,6.44-4.17,0.74-.15.43-1.28-0.31-1.13-2.81.56-4.49,2.73-6.72,4.29-0.62.43,0,1.45,0.59,1h0Z"/><path class="cls-10" d="M115.16,436.86c0.05,0.67.42,1.22,0.47,1.88a0.59,0.59,0,0,0,1.18,0c0-3.29.62-7.35-1.49-10.17-0.45-.6-1.47,0-1,0.59,2,2.64,1.34,6.49,1.33,9.57h1.18c-0.05-.67-0.42-1.22-0.47-1.88s-1.23-.76-1.18,0h0Z"/><path class="cls-10" d="M188.05,269c0.67-16.77,2.47-33.49,2.49-50.28a0.59,0.59,0,0,0-1.18,0c0,16.8-1.82,33.51-2.49,50.28a0.59,0.59,0,0,0,1.18,0h0Z"/><path class="cls-11" d="M161.36,373.31c1.8-.68,5.38-0.51,6.12-2.72,0.44-1.32,0-2.84-.35-4.13s-0.76-2.84-1.25-4.22"/><path class="cls-12" d="M49.28,40.44A17.69,17.69,0,0,0,35,40.2,16.65,16.65,0,0,0,25.5,51.63a11.52,11.52,0,0,0,3.3,11.73C32.32,66.65,37,68,41.54,69.24c3,0.86,6,2.92,7.28,5.91s0,5.65-2.44,7.37c-3.84,2.69-9.21,2.83-13.71,2.81-5.14,0-10.27-.61-15.41-0.63a0.59,0.59,0,0,0-.57.43c-0.46,2.41,1.46,3.79,3.49,4.51,3.16,1.13,6.76,1.18,10.08,1.17a84.94,84.94,0,0,0,11.43-.87,28.9,28.9,0,0,0,7.62-1.83c4.5-2,8.36-5.7,8.93-10.79s-1.94-10.27-5.49-13.68A17.19,17.19,0,0,0,46.28,60c-2.46-.86-5.13-1-7.61-1.74a7.3,7.3,0,0,1-5.24-5.94A6.22,6.22,0,0,1,37.67,46c3.74-1.2,7.77,2.21,11.4.39,1.31-.66,1.35-2.67,1.34-3.93A2.65,2.65,0,0,0,50,40.85c-0.64-.64-1.56-0.14-2.13.32s0.25,1.31.83,0.83,0.32-.69.43-0.19a4.36,4.36,0,0,1,.06.69,7.85,7.85,0,0,1-.11,1.65c-0.24,1.39-1.26,1.63-2.54,1.61-2.57,0-5-1.17-7.59-1.11-4.83.1-8.11,5.65-6.16,10a8.84,8.84,0,0,0,5.23,4.7c2.46,0.9,5.13,1,7.64,1.75A16.23,16.23,0,0,1,56.64,72.4c1.6,5.39-.85,10.52-5.48,13.44a22,22,0,0,1-8.59,2.8,83.3,83.3,0,0,1-11.36,1,32.81,32.81,0,0,1-10.4-1c-1.43-.45-3.31-1.37-3-3.17l-0.57.43c6.59,0,13.16,1,19.76.49C41.5,86,47.27,85,49.69,80.66c1.75-3.12.38-6.75-1.94-9.13-3.27-3.38-8.07-3.72-12.22-5.42-3.22-1.32-6.41-3.31-8.17-6.41-2-3.57-1.06-7.8.59-11.31,3.59-7.61,13.3-10.41,20.73-6.94,0.68,0.32,1.28-.69.59-1h0Z"/><path class="cls-12" d="M81.67,39.71c-9,.36-14.23,10.56-17.12,17.79-3.31,8.28-5.38,17.86-1.77,26.39,2.71,6.42,9,9.76,15.84,9.11,7.55-.71,13.23-6.46,16.51-12.93L94,79.79c0,2.14-.23,4.58.74,6.56a3.43,3.43,0,0,0,1.69,1.79,5,5,0,0,0,2,0,39.7,39.7,0,0,0,5.47-.79c1.16-.26,1.49-1.26,1.53-2.37a11.58,11.58,0,0,0-1.21-4.69,54.17,54.17,0,0,0-2.9-5.72c-1.87-3.3-4.16-6.47-5.71-9.94a27.28,27.28,0,0,1-1.34-4.68c-0.44-1.8-.81-3.62-1.19-5.43a50.86,50.86,0,0,0-2.7-9.93A5.68,5.68,0,0,0,86.63,41c-2.06-.55-4.32-0.31-6.42-0.66-0.74-.12-1.06,1-0.31,1.13,2,0.34,4.06.23,6.05,0.58,2.19,0.39,3.14,2.2,3.79,4.16a94.24,94.24,0,0,1,2.55,10.25,43.85,43.85,0,0,0,2.35,8.84c1.57,3.51,3.9,6.71,5.79,10.05a48.12,48.12,0,0,1,2.92,5.85c0.52,1.31,1.17,3,.81,4.4a1.66,1.66,0,0,1-.19.43c-0.09.16,0.2,0-.13,0.06a14.43,14.43,0,0,1-1.53.31c-1.42.25-2.86,0.43-4.3,0.54a4.41,4.41,0,0,1-1.23,0c-0.73-.17-1.12-1.55-1.28-2.14a19.43,19.43,0,0,1-.29-5.08,0.59,0.59,0,0,0-1.09-.3c-2.5,4.94-6.3,9.42-11.6,11.43-5,1.89-11.09,1.22-15.13-2.4-3.59-3.22-5-8.25-5.31-12.92a37.12,37.12,0,0,1,2-13.12,50.11,50.11,0,0,1,6.61-14.11c2.56-3.67,6.28-7.29,11-7.48a0.59,0.59,0,0,0,0-1.18h0Z"/><path class="cls-12" d="M88.43,68.08c-1-3.45-1.72-7-2.85-10.41C84.7,55,83.53,52,81,50.47a0.59,0.59,0,0,0-.59,1c2.6,1.57,3.6,5,4.44,7.73,0.93,3,1.54,6.14,2.45,9.18a0.59,0.59,0,0,0,1.13-.31h0Z"/><path class="cls-12" d="M79.47,51.3c-0.13,1.12-1.39,2.05-2.17,2.75s-1.89,1.6-2.77,2.46a16.35,16.35,0,0,0-3.66,5.32,24.27,24.27,0,0,0-1.56,6.68A46,46,0,0,0,69,76.13c0.23,4,2.41,7.36,6.69,7.76,4.75,0.44,9.14-2.08,12.69-5,0.59-.48-0.25-1.3-0.83-0.83-3.34,2.72-7.63,5.21-12.1,4.6-5.11-.7-5.45-5.77-5.26-9.94,0.21-4.45.56-9,3-12.82a21.43,21.43,0,0,1,4.25-4.47c1.29-1.11,2.95-2.34,3.15-4.14,0.09-.75-1.09-0.74-1.18,0h0Z"/><path class="cls-12" d="M130.8,45.87c-3.07-3.46-8.33-4.61-12.77-4.38-4.63.24-8.6,2.51-10.4,6.88-1.9,4.6-1.85,9.75-2.07,14.63a32.43,32.43,0,0,0,3.51,16.94,34.47,34.47,0,0,0,4.41,6.65,9.33,9.33,0,0,0,5.06,3.09c4.09,0.85,8.34-1.59,11.82-3.41l-0.88-.51a4.54,4.54,0,0,0,4.16,4.5c2.27,0.2,3.46-1.57,3.49-3.58a28.68,28.68,0,0,1,.11-3.92c0.28-1.89.66-3.77,1.06-5.64,0.74-3.45,1.57-6.89,2-10.4,0.94-7.15.77-14.41,1.63-21.57s3.22-14,4.74-21.12a52.1,52.1,0,0,0,1.11-8.2,0.59,0.59,0,0,0-.59-0.59,16.35,16.35,0,0,1-5.67-.63,0.59,0.59,0,0,0-.72.41c-1.52,6-3.73,11.89-4.79,18-0.92,5.32-.43,11.12-3.57,15.82h1c-1.09-1.84-2.14-3.68-4.24-4.48-0.71-.27-1,0.87-0.31,1.13,1.76,0.67,2.63,2.41,3.53,3.94a0.59,0.59,0,0,0,1,0c3-4.41,3-10,3.56-15.12,0.72-6.48,3.33-12.71,4.92-19l-0.72.41a17.32,17.32,0,0,0,6,.67l-0.59-.59c-0.37,7.08-2.61,13.83-4.31,20.67s-2.09,13.66-2.47,20.54c-0.2,3.61-.32,7.23-0.87,10.81S137.53,75,136.8,78.54a46.59,46.59,0,0,0-.85,5c-0.11,1.15,0,2.29,0,3.44a2,2,0,0,1-2.31,2.16c-1.75,0-2.92-1.75-3-3.33a0.59,0.59,0,0,0-.88-0.51c-4,2.1-9.18,5-13.56,2.18-2.5-1.62-4.13-4.63-5.58-7.14a29.74,29.74,0,0,1-3.31-8.45,34.67,34.67,0,0,1-.57-9.12c0.11-2.47.18-4.94,0.44-7.4,0.54-5,2.1-10.26,7.31-12,4.88-1.66,11.95-.6,15.48,3.38,0.5,0.57,1.33-.27.83-0.83h0Z"/><path class="cls-12" d="M127.47,49.57c-3.38-3.73-9.9-2.16-13.4.58-2.33,1.83-3.15,5.19-3.51,8A32.76,32.76,0,0,0,111,68.51a33.68,33.68,0,0,0,3.6,9.3c1.29,2.43,3.06,5,5.75,6.05a7.91,7.91,0,0,0,7.73-1c2.43-2,3-4.74,3.22-7.72,0.27-3.85.46-7.7,0.5-11.56,0-3.39.28-7.19-.67-10.49a0.59,0.59,0,0,0-1.13.31,20.94,20.94,0,0,1,.56,4.86c0.09,1.92.08,3.85,0.06,5.77,0,3.85-.25,7.69-0.52,11.53-0.25,3.55-1.69,6.78-5.47,7.58s-6.49-1.79-8.27-4.66a30.94,30.94,0,0,1-4.57-20.63A16.25,16.25,0,0,1,113.26,53a7.39,7.39,0,0,1,3.6-3.16A10.58,10.58,0,0,1,124.7,49a4.83,4.83,0,0,1,1.93,1.37,0.59,0.59,0,0,0,.83-0.83h0Z"/><path class="cls-12" d="M126,50.74a5.88,5.88,0,0,1,3.8,3.47c0.25,0.71,1.39.4,1.13-.31a7.14,7.14,0,0,0-4.62-4.29c-0.72-.25-1,0.89-0.31,1.13h0Z"/><path class="cls-12" d="M88.41,69.11V67.81a0.59,0.59,0,0,0-1.18,0c-0.24,3.6,1.56,6.84,1.94,10.36l0.29-.51a13.73,13.73,0,0,1-3.74,1.88A0.59,0.59,0,0,0,86,80.68a14.72,14.72,0,0,0,4-2,0.58,0.58,0,0,0,.29-0.51c-0.38-3.51-2.18-6.78-1.94-10.36H87.23v1.29a0.59,0.59,0,0,0,1.18,0h0Z"/><path class="cls-12" d="M175.9,42a37.41,37.41,0,0,0,3.86-.34l-0.66-.86c-1.42,3-1.12,6.45-1.69,9.68-0.65,3.71-1.65,7.34-2.55,11-1.83,7.4-3.15,14.91-4.58,22.39-1.37,7.2-2.36,14.55-4.92,21.45-2.29,6.16-6.1,12.43-12.14,15.49-3,1.51-7.17,2.29-10.42,1.31-4.62-1.4-2.86-7.29-4.44-10.75l-0.51.88c2.2-.29,4.43-0.33,6.63-0.67l-0.74-.57c0,2.71.54,5.26,3.58,5.84,2.8,0.53,6-1.07,8.29-2.52a14.26,14.26,0,0,0,3.21-2.9A18.77,18.77,0,0,0,160.1,110a10.86,10.86,0,0,0,.82-2c0.59-1.43.52-3.33,0.67-4.85a22,22,0,0,1,.25-3q0.38-1.54.75-3.08c1.73-7.31,3.12-14.7,4.25-22.13,0.55-3.63,1-7.27,1.47-10.92q0.32-2.71.6-5.43c0.19-1.86.18-3.73,0.36-5.59a11.82,11.82,0,0,1,.4-2,0.59,0.59,0,0,0-1.13-.31c-0.81,3-.62,6.21-0.95,9.26q-0.56,5.34-1.3,10.66-1.41,10.27-3.55,20.42-0.51,2.43-1.08,4.85-0.25,1.1-.52,2.2a11.82,11.82,0,0,0-.56,2.36c0,1.65-.23,3.29-0.4,4.93s-0.48,3.46-1.66,4.61a31.31,31.31,0,0,1-3.15,3.06,15.36,15.36,0,0,1-4.32,2.13,6.19,6.19,0,0,1-4.59.12c-1.6-.76-1.53-2.84-1.54-4.34a0.6,0.6,0,0,0-.74-0.57c-2.09.32-4.22,0.35-6.32,0.63a0.6,0.6,0,0,0-.51.88c1.29,2.8.34,6.12,1.9,8.85a6.34,6.34,0,0,0,4.91,2.79A18.28,18.28,0,0,0,157.88,119c4.93-4.24,7.82-10.54,9.71-16.63A86.44,86.44,0,0,0,170,91.86c0.67-3.78,1.43-7.54,2.13-11.31,1.26-6.73,2.55-13.46,4.23-20.11,0.81-3.21,1.62-6.41,2.22-9.67,0.57-3.1.21-6.5,1.57-9.4a0.6,0.6,0,0,0-.66-0.86,34.41,34.41,0,0,1-3.55.3,0.59,0.59,0,0,0,0,1.18h0Z"/><path class="cls-12" d="M175.22,27.51c-1,2.4-1.4,6.2,1.39,7.57,2.46,1.21,7.39-.13,7.94-3.17,0.83-4.62-7.92-9.64-10-4.27-0.28.71,0.86,1,1.13,0.31,1.54-3.91,7.67.47,7.78,3.37,0.09,2.54-4.2,3.3-6,2.82-2.48-.68-2-4.3-1.22-6.05,0.3-.69-0.72-1.29-1-0.59h0Z"/><path class="cls-12" d="M186.23,41.43c-2.55,3.32-3.71,7.68-4.52,11.72a61.05,61.05,0,0,0-1.08,15.05c0.21,4,.68,8.69,3,12.09a17,17,0,0,0,6.1,5.14,13.26,13.26,0,0,0,7.39,1.82c4.48-.49,6.81-3.88,8.57-7.67l-1.09-.3c0,2.74.44,6.11,3.33,7.28,2.64,1.06,5.83.44,8.59,0.43a0.59,0.59,0,0,0,.57-0.74c-3.69-11.78-5.17-24-6.93-36.21-0.52-3.62-.22-7.78-2-11.1A4.59,4.59,0,0,0,204,36.54c-2.07.16-3.21,2.26-3.61,4.06l0.86-.35c-2.86-1.76-6.94-2-10.19-1.65s-6.8,2-6.88,5.72a0.59,0.59,0,0,0,1.18,0c0.07-3.46,3.8-4.43,6.64-4.63s6.23,0.08,8.66,1.57a0.59,0.59,0,0,0,.86-0.35c0.56-2.49,2.52-4.23,4.84-2.33,1.22,1,1.52,2.79,1.78,4.27,0.3,1.69.39,3.4,0.54,5.11,0.2,2.27.62,4.53,0.94,6.78,1.51,10.72,3.05,21.45,6.3,31.81l0.57-.74c-2.48,0-5.15.46-7.58-.15-2.84-.72-3.14-3.92-3.16-6.38a0.59,0.59,0,0,0-1.09-.3c-1,2.23-2.2,4.56-4.31,6-2.34,1.55-5.15,1.34-7.7.49a17.28,17.28,0,0,1-7.33-4.86,12.89,12.89,0,0,1-2.66-5.79,47.36,47.36,0,0,1-.77-14.5A47.22,47.22,0,0,1,185,46a17.25,17.25,0,0,1,2.24-4c0.46-.6-0.56-1.18-1-0.59h0Z"/><path class="cls-12" d="M190.05,44.48c-2,8.61-5.51,17.63-3.53,26.57a14.07,14.07,0,0,0,7.13,9.39c2,1.1,4.38,1.72,6.47.58s3-3.39,3.61-5.42A35.89,35.89,0,0,0,205,66.52a93.59,93.59,0,0,0-1.3-19.13,28.23,28.23,0,0,0-.91-4.2,0.59,0.59,0,0,0-.57-0.43c-2.58.21-5.16,0.3-7.7,0.76-2.26.41-4.65,1.18-6.07,3.09-0.45.61,0.57,1.19,1,.59,1.34-1.8,3.91-2.3,6-2.65,2.24-.38,4.52-0.43,6.78-0.62l-0.57-.43a34.54,34.54,0,0,1,1.15,5.72c0.46,3.12.76,6.27,0.93,9.42a75.14,75.14,0,0,1-.06,10.27,24,24,0,0,1-1.87,8.34c-0.88,1.84-2.31,3.32-4.47,3.22-3.26-.16-6.58-3.08-8.16-5.7-2.45-4.06-2.3-9.26-1.73-13.8a104.65,104.65,0,0,1,3.07-13.67c0.22-.83.43-1.66,0.63-2.5a0.59,0.59,0,0,0-1.13-.31h0Z"/><path class="cls-12" d="M235.58,35.07c-2.36-1.49-5.3-2.8-8.11-1.84-2.37.81-3.83,3.07-4.75,5.27-2.57,6.21-2.57,13.55-2.45,20.16,0.05,2.81.2,5.61,0.41,8.41,0.28,3.79,0,7.59.22,11.37s1.23,7.75,4.46,10.14c4,3,9.93,2.38,14.17.23a15.63,15.63,0,0,0,5.88-5.28,19.3,19.3,0,0,0,2.39-6.59c0.42-1.88.77-3.78-.5-5.43s-3.8-1.64-5.71-2.19a0.58,0.58,0,0,0-.66.27c-1.51,3.4-2.24,8.81-6.12,10.4-5,2.05-7.28-4.83-8.08-8.39a23.12,23.12,0,0,1-.26-8.19,81.4,81.4,0,0,1,2-10.64c0.75-2.89,3.92-15.29,9-11,0.48,0.41,1.31-.13.92-0.71-1.54-2.3-1-6.2-4.24-7.07a0.59,0.59,0,0,0-.31,1.13c1.46,0.39,1.85,1.73,2.2,3a11.5,11.5,0,0,0,1.33,3.49l0.92-.71c-9-7.71-13.5,21.9-13.31,26.81a24.56,24.56,0,0,0,1.84,8.11c1,2.37,2.57,4.95,5.27,5.5,6.39,1.31,8-7.06,9.86-11.22l-0.66.27c2.13,0.61,4.74.42,5.64,2.84a5.39,5.39,0,0,1-.13,2.77,35.94,35.94,0,0,1-.91,3.59,14.28,14.28,0,0,1-12.45,9.74,11.63,11.63,0,0,1-7.28-1.7,8.7,8.7,0,0,1-3.31-4.8C221.55,78.8,222,74.26,222,70c0-2.64-.31-5.28-0.43-7.91-0.15-3.41-.19-6.83,0-10.25a48.62,48.62,0,0,1,1.41-10.34c0.65-2.45,1.69-5.27,3.92-6.71,2.6-1.69,5.81-.21,8.13,1.26a0.59,0.59,0,0,0,.59-1h0Z"/><path class="cls-12" d="M245.73,17a60.86,60.86,0,0,1,2.87,18.5c0.07,3.24.13,6.45,0.41,9.69,0.29,3.42.66,6.82,0.83,10.25,0.68,13.78-.63,27.58.4,41.36a0.6,0.6,0,0,0,.59.59c3.23,0.31,6.47.32,9.71,0.32a0.59,0.59,0,0,0,.59-0.59c0-9.83-.64-19.64-1-29.45l-1,.42c3.33,3,5.37,7.26,7.11,11.33,1.81,4.24,3.2,8.65,4.71,13a0.6,0.6,0,0,0,.86.35c1.71-.82,3.78-1.71,4.84-3.37,0.79-1.23.38-2.76-.07-4-0.9-2.55-2-5-2.8-7.6a65.06,65.06,0,0,0-3.28-8.83,25.35,25.35,0,0,0-4.84-6.67,7,7,0,0,1-1.34-1.57,3.09,3.09,0,0,1,.31-2.26A84.81,84.81,0,0,1,269,49.61,92,92,0,0,0,273,40.55a32.08,32.08,0,0,0,2-8.21,0.58,0.58,0,0,0-.43-0.57,16,16,0,0,1-5.36-1.56,0.59,0.59,0,0,0-.8.21c-3.62,8.22-7.4,16.4-12.3,24l1.07,0.14c-2.06-5.34-1.34-11.48-1.55-17.08-0.29-7.53-.67-15.05-1-22.58a0.6,0.6,0,0,0-.59-0.59c-3.45,0-6.69.84-10.08,1.34a4.8,4.8,0,0,0-2.39.67c-0.8.68,0.49,1.28,1,1.41a0.59,0.59,0,0,0,.31-1.13l-0.4-.12c0.94,0.3-.53.81,0.19,0.6a9,9,0,0,1,.95-0.19c0.73-.13,1.46-0.21,2.19-0.33a54.15,54.15,0,0,1,8.24-1.07l-0.59-.59q0.51,11.29,1,22.58c0.25,5.71-.51,11.94,1.59,17.39a0.59,0.59,0,0,0,1.07.14c4.9-7.55,8.68-15.74,12.3-24l-0.8.21a16.83,16.83,0,0,0,5.64,1.68l-0.43-.57c-0.64,6.71-4,12.95-7,18.85a44.25,44.25,0,0,0-3.6,7.78,3.35,3.35,0,0,0,1.05,3.49,29.45,29.45,0,0,1,4.89,6.35,52.89,52.89,0,0,1,3.5,9.22c0.82,2.59,1.86,5.06,2.8,7.6,0.55,1.49.76,2.77-.51,3.91a15.48,15.48,0,0,1-3.72,2.16l0.86,0.35c-1.55-4.46-3-8.94-4.83-13.29-1.76-4.16-3.9-8.49-7.29-11.57a0.59,0.59,0,0,0-1,.42c0.33,9.82,1,19.63,1,29.45l0.59-.59c-3.24,0-6.48,0-9.71-.32l0.59,0.59c-1-13.77.2-27.58-.4-41.36-0.14-3.28-.5-6.54-0.79-9.8s-0.38-6.74-.44-10.13a61.25,61.25,0,0,0-2.91-18.81c-0.25-.71-1.38-0.41-1.13.31h0Z"/><path class="cls-12" d="M304.73,59.66a6,6,0,0,1,.92,3.77,28.17,28.17,0,0,1-.63,5.4c-0.62,3.3-1.61,6.51-2.27,9.79-0.53,2.62-.37,5.46-0.57,8.12-0.13,1.67-.29,3.35-0.58,5-0.13.74-.26,2.38-1,2.85-0.44.29,0,1,.42,0.71A3.69,3.69,0,0,0,302.2,93a34.65,34.65,0,0,0,.7-4.9c0.17-1.76.27-3.53,0.37-5.3a29.87,29.87,0,0,1,.29-4c0.69-3.58,1.79-7.07,2.43-10.67,0.49-2.75,1.26-6.71-.67-9.1-0.33-.41-0.91.17-0.58,0.58h0Z"/><path class="cls-12" d="M303.69,52.1a1.6,1.6,0,0,0-1.13.51,1.55,1.55,0,0,0-.14,1,1.25,1.25,0,0,0,.79.57c1.53,0.62,2.25-.72,2.46-2a0.42,0.42,0,0,0-.29-0.51c-1.68-.46-3.59-0.26-3.94,1.76-0.09.52,0.7,0.74,0.79,0.22,0.27-1.55,1.67-1.53,2.93-1.19l-0.29-.51a2.72,2.72,0,0,1-.52,1.45c-0.36.39-1,0-1.33-.23l0.2,0.36c0-.23-0.07-0.47.19-0.48a1.5,1.5,0,0,0,.49-0.1c0.48-.2.27-1-0.22-0.79h0Z"/><path class="cls-12" d="M318.88,57.94c-1.84-4.06-6,.06-7.42,2.2a8.19,8.19,0,0,0-1.5,5.34c0.06,1.28.55,2.53,2,2.62s2.84-.75,4.2-1c2.09-.4,3.38,1,3.77,2.91a15.36,15.36,0,0,1-.74,6.87A25.39,25.39,0,0,1,317,82.35c-1.52,2.74-8,10.79-10.65,5.28l-0.36.62a3.73,3.73,0,0,1,1.36.23c0.5,0.19.71-.6,0.22-0.79a4.24,4.24,0,0,0-1.58-.26,0.42,0.42,0,0,0-.36.62c2,4.05,6,1.7,8.41-.57a21.4,21.4,0,0,0,5.51-9.09c1.06-3.17,2.62-8.66-.26-11.35-1.14-1.06-2.73-.94-4.13-0.58-1,.26-3.08,1.41-4,0.5s-0.51-2.85-.31-3.78a8.92,8.92,0,0,1,1.7-3.23c1.19-1.61,4.21-4.58,5.57-1.59,0.22,0.48.93,0.06,0.71-.41h0Z"/><path class="cls-12" d="M326,66.54a86.76,86.76,0,0,1-.72,26.84H326a2.4,2.4,0,0,1,0-.95c0-.14.05-0.27,0.09-0.41s0.08-.07-0.16,0l-0.46-.19c-0.1-.24,0,0-0.05.14,0,0.47-.14.95-0.22,1.41H326c-0.25-.89-0.3-1.8-0.49-2.7-0.11-.52-0.9-0.3-0.79.22,0.19,0.9.24,1.81,0.49,2.7a0.41,0.41,0,0,0,.79,0,4.48,4.48,0,0,0,.19-2.19,0.41,0.41,0,0,0-.46-0.19c-0.69.18-.64,1.88-0.52,2.38a0.41,0.41,0,0,0,.79,0,88,88,0,0,0,.72-27.27c-0.07-.52-0.86-0.3-0.79.22h0Z"/><path class="cls-12" d="M325.79,65.31l0.07,0.46a0.41,0.41,0,0,0,.51.29,0.42,0.42,0,0,0,.29-0.51l-0.07-.46a0.41,0.41,0,0,0-.51-0.29,0.42,0.42,0,0,0-.29.51h0Z"/><path class="cls-12" d="M325.25,62.11l0.11,0.6a0.41,0.41,0,0,0,.51.29,0.42,0.42,0,0,0,.29-0.51L326,61.9a0.41,0.41,0,0,0-.51-0.29,0.42,0.42,0,0,0-.29.51h0Z"/><path class="cls-12" d="M324.76,59.73q0.19,0.85.37,1.71c0.1,0.52.9,0.3,0.79-.22s-0.24-1.14-.37-1.71a0.41,0.41,0,0,0-.79.22h0Z"/><path class="cls-12" d="M359.45,57.73a12.83,12.83,0,0,0-6.62,1.72,8.26,8.26,0,0,0-4,4,3.32,3.32,0,0,0,.86,4,16,16,0,0,0,3.18,1.43,10.93,10.93,0,0,1,4.7,12.08,15.42,15.42,0,0,1-4.73,6.65c-3.5,3.08-10.66,6.58-14.83,2.86-0.39-.35-1,0.23-0.58.58,3.65,3.25,9.21,1.46,12.95-.68,4.26-2.44,8-6.7,8.51-11.71a10.73,10.73,0,0,0-2.23-7.25,12.63,12.63,0,0,0-2.45-2.63c-1.1-.85-2.41-1.06-3.62-1.71-2.48-1.34-.8-4.26.71-5.59a12.12,12.12,0,0,1,8.14-2.9,0.41,0.41,0,0,0,0-.82h0Z"/><path class="cls-12" d="M304.38,59.73c0.72,3.08.15,5.94-.7,8.93s-1.44,5.8-2,8.74a96,96,0,0,0-2.2,18.06,0.41,0.41,0,0,0,.7.29c2-1.92,1.38-4.67,1.35-7.16a0.41,0.41,0,0,0-.82,0c0,2.23.7,4.85-1.11,6.58l0.7,0.29a98,98,0,0,1,2.33-18.62c0.58-2.93,1.26-5.82,2.07-8.69a16.91,16.91,0,0,0,.5-8.63,0.41,0.41,0,0,0-.79.22h0Z"/><path class="cls-12" d="M318.14,57.75c-3.38-1.31-7.42,1.43-9,4.3a3.79,3.79,0,0,0,0,4.17,4.39,4.39,0,0,0,4.34,1.45c1.71-.22,3.56-1,5.27-0.45,2,0.66,2.36,3.81,2.21,5.61-0.38,4.51-3.28,9-6.4,12.16-2,2-4.75,3.87-7.68,3.44-0.35-.05-0.77.4-0.4,0.69a4.7,4.7,0,0,0,1.06.56c0.48,0.21.9-.49,0.42-0.71a6.06,6.06,0,0,1-.9-0.43l-0.4.69c4,0.6,7.57-2.41,10-5.31,2.65-3.17,4.9-7.33,5.16-11.52a7.1,7.1,0,0,0-1.67-5.25c-1.15-1.17-2.93-1-4.4-.73-1.84.33-3.91,1.07-5.53-.25s-0.67-3.55.45-4.89c1.64-2,4.69-3.74,7.29-2.73,0.5,0.19.71-.6,0.22-0.79h0Z"/><path class="cls-12" d="M325.83,62.31a18.24,18.24,0,0,0-1.79-.64l0.18,0.69a1.09,1.09,0,0,1,.69-0.13,0.41,0.41,0,0,0,0-.82,1.85,1.85,0,0,0-1.27.37,0.41,0.41,0,0,0,.18.69,18.28,18.28,0,0,1,1.79.64c0.49,0.2.7-.6,0.22-0.79h0Z"/><path class="cls-12" d="M326.13,67.6a47,47,0,0,0-.32,6.67c0.16,2.22.54,4.43,0.77,6.64,0.39,3.7,1.07,9.06-1.72,12l0.69,0.18c-0.76-4.77.88-9.46,1-14.22,0.06-2.44-.15-4.92-0.27-7.36a39.14,39.14,0,0,1-.11-7.66c0.08-.52-0.71-0.74-0.79-0.22a36.91,36.91,0,0,0,.06,7.42c0.14,2.6.3,5.22,0.29,7.82,0,4.87-1.75,9.55-1,14.44a0.41,0.41,0,0,0,.69.18c2.63-2.8,2.37-7.28,2.12-10.84-0.17-2.53-.55-5-0.84-7.57A40.52,40.52,0,0,1,327,67.6c0-.53-0.79-0.53-0.82,0h0Z"/><path class="cls-12" d="M324.42,59.78a1.06,1.06,0,0,1,.81.18,0.42,0.42,0,0,0,.58,0,0.41,0.41,0,0,0,0-.58,1.84,1.84,0,0,0-1.39-.42,0.42,0.42,0,0,0-.41.41,0.41,0.41,0,0,0,.41.41h0Z"/><path class="cls-12" d="M337.79,91c3.4,3.09,8.88,2,12.7.31,4.66-2,9.15-6,8.57-11.58-0.6-5.71-7.3-8.69-7.17-14.58,0.07-3.19,2.82-5.47,5.6-6.48a7.63,7.63,0,0,1,4.31-.29,5.13,5.13,0,0,1,2.39,1.36,5.51,5.51,0,0,0,1,1.13,0.43,0.43,0,0,0,.5-0.06c0.42-.34,0-1-0.23-1.39s-1-.06-0.71.41l0.16,0.33q0.12,0.56.19,0.07l0.5-.06a8.41,8.41,0,0,1-1.1-1.26,5.63,5.63,0,0,0-1.71-1.05,7.14,7.14,0,0,0-3.32-.45,10.32,10.32,0,0,0-6.53,3.26,7.12,7.12,0,0,0-1.8,5.9c0.42,2.66,2.08,4.71,3.71,6.76,2,2.56,3.85,5.29,3.36,8.72-0.42,3-2.72,5.34-5.09,6.94-3.77,2.54-10.86,5-14.74,1.43a0.41,0.41,0,0,0-.58.58h0Z"/><path class="cls-12" d="M362.85,60.49c-3.26-2.45-9.07-2.75-11.82.63-3.42,4.22,2.64,7.45,5.22,9.73,2.26,2,3.51,4.48,2.81,7.52-0.59,2.55-2.46,4.66-4.38,6.33a26.68,26.68,0,0,1-6.57,4.06c-2.71,1.22-5.85,2-8.78,1.18a0.41,0.41,0,0,0-.22.79c4.77,1.42,10-1.15,13.93-3.76,3.64-2.43,7.15-6.13,7.08-10.78,0-2.27-1.45-4.18-3-5.69-1.75-1.68-4.12-2.78-5.55-4.77-1.9-2.66.65-5.29,3.16-6a9.39,9.39,0,0,1,7.73,1.48c0.42,0.32.83-.4,0.41-0.71h0Z"/><path class="cls-12" d="M168.22,50.79a69.11,69.11,0,0,0,.32-8.09l-0.59.59a88.15,88.15,0,0,0,8.9-1.64,0.59,0.59,0,0,0-.31-1.13,85.11,85.11,0,0,1-8.58,1.6,0.6,0.6,0,0,0-.59.59,69.11,69.11,0,0,1-.32,8.09c-0.09.75,1.09,0.74,1.18,0h0Z"/><path class="cls-12" d="M327.28,61.33a9.58,9.58,0,0,0-.51-2.32c-0.11-.35-0.73-0.43-0.79,0-0.43,2.75.19,5.46,0.23,8.21a0.41,0.41,0,0,0,.82,0c0-1.58,1.58-8.16-1.39-8a0.41,0.41,0,0,0,0,.82c1.75-.08.59,6.11,0.57,7.2H327c0-2.67-.68-5.32-0.26-8H326a8.74,8.74,0,0,1,.48,2.1c0,0.53.85,0.53,0.82,0h0Z"/><path class="cls-12" d="M327.51,66.84c1-.6,1.24-2.11,1.62-3.12,0.72-1.93,2.66-3,4.43-1.49,1.35,1.19,1.63,3.41,1.84,5.09a47.44,47.44,0,0,0,.59,4.93,0.41,0.41,0,0,0,.81-0.11c0-1.57-.23-3.14-0.3-4.71s-0.13-3.74,1.08-5.05c1.43-1.55,3.91-.5,5.25.6a6.39,6.39,0,0,1,1.78,2.9,34,34,0,0,1,1.74,8.6c0.19,2.11.57,5.08-.5,7l0.75,0.1c-1.6-4.38-1.86-9.12-3.64-13.45a21.19,21.19,0,0,0-2.95-5c-0.42-.54-1.1-1.38-1.89-1.27-1.41.21-1.13,3.28-1.14,4.21,0,1.17,0,2.34-.06,3.52a5.18,5.18,0,0,1-.64,2.77l0.75,0.1c-1.29-3.27-2.28-7-5.81-8.53a3.29,3.29,0,0,0-3.42.25c-1.16,1.06-1,2.69-.64,4.08a0.41,0.41,0,0,0,.81-0.11c-0.14-1.82-.2-5.64,2.43-5.73,2.38-.08,4.1,2.87,4.9,4.71l0.71-.41a10.54,10.54,0,0,0-5.15-4.12l-0.22.79c3.15,1,6.86,3.26,5.85,7.1l0.81,0.11a16.62,16.62,0,0,1,1.19-6,2.3,2.3,0,0,1,1.42-1.51c0.9-.12,1.68,1.08,2.09,1.69,3.4,5,3.54,11.79,3.55,17.61a0.41,0.41,0,0,0,.82,0A23.74,23.74,0,0,0,344.3,72c-1.44-3.43-3.24-6.68-4.34-10.25l-0.29.51c2.79-.79,3.95,3.36,4.4,5.36l0.75-.32c-1.6-2.42-3.38-5.5-6.74-5.11a0.42,0.42,0,0,0-.4.3c-0.46,2.86.17,5.85-1,8.59-0.2.49,0.59,0.7,0.79,0.22,1.16-2.76.52-5.72,1-8.59l-0.4.3c3-.35,4.59,2.53,6,4.71a0.41,0.41,0,0,0,.75-0.32c-0.57-2.5-2-6.89-5.41-5.93a0.41,0.41,0,0,0-.29.51,81.6,81.6,0,0,0,4,9.42,23.87,23.87,0,0,1,2.39,11.09h0.82a53,53,0,0,0-.85-10.71c-0.61-3-1.69-6.77-4.1-8.82-3.75-3.2-4.87,5.93-5,7.75a0.41,0.41,0,0,0,.81.11c1.14-4.32-2.81-7-6.42-8.11-0.52-.16-0.7.6-0.22,0.79a9.6,9.6,0,0,1,4.66,3.74,0.41,0.41,0,0,0,.71-0.41c-1-2.25-3-5.21-5.77-5.11-3.09.11-3.26,4.35-3.09,6.54l0.81-.11c-0.31-1.16-.54-2.71.67-3.43s2.51,0.1,3.39.71c2.44,1.69,3.2,4.74,4.23,7.36a0.42,0.42,0,0,0,.75.1c1-1.28.79-3.42,0.81-4.93,0-1,0-2,0-3a4.46,4.46,0,0,1,.36-2.06c0.21-.35,1.35,1.13,1.45,1.27a21,21,0,0,1,2.94,5.39c1.47,4,1.74,8.34,3.21,12.36a0.42,0.42,0,0,0,.75.1c1.28-2.33.79-5.77,0.53-8.28a28.84,28.84,0,0,0-2.29-9.42c-1.17-2.44-5.16-4.79-7.58-2.62-2.74,2.46-1.28,7.37-1.24,10.55l0.81-.11c-0.45-1.9-.42-3.9-0.72-5.82-0.27-1.71-.79-3.83-2.32-4.87a3.35,3.35,0,0,0-4.55.54,7.18,7.18,0,0,0-1.07,2.22c-0.22.64-.4,1.67-1,2a0.41,0.41,0,0,0,.42.71h0Z"/><path class="cls-12" d="M347.09,82.8a17.55,17.55,0,0,0,.51-3.3h-0.82a10.81,10.81,0,0,1-.48,3.08l0.75-.1a6.52,6.52,0,0,1-.94-1.62c-0.08-.52-0.88-0.3-0.79.22a6.93,6.93,0,0,0,1,1.82,0.41,0.41,0,0,0,.75-0.1,11.62,11.62,0,0,0,.51-3.3,0.41,0.41,0,0,0-.82,0,16.37,16.37,0,0,1-.48,3.08c-0.11.52,0.69,0.74,0.79,0.22h0Z"/><path class="cls-12" d="M324.26,60.22a51.72,51.72,0,0,1,1.47,5.65,0.41,0.41,0,0,0,.81-0.11c-0.11-.87-0.27-1.73-0.45-2.59-0.13-.62-0.23-1.24-0.3-1.87,0-.12-0.06-1.38-0.09-1.37l-0.6-.25a3,3,0,0,0,.19.88c0.24,0.48.94,0.06,0.71-.41a2.7,2.7,0,0,1-.11-0.68,0.42,0.42,0,0,0-.6-0.25l-0.1,0a0.41,0.41,0,0,0-.2.36c-0.18,2.1.47,4.07,0.74,6.14l0.81-.11A51.7,51.7,0,0,0,325.06,60a0.41,0.41,0,0,0-.79.22h0Z"/><path class="cls-12" d="M305,60a4.92,4.92,0,0,0-1.68-.55,0.41,0.41,0,0,0-.4.3,9.75,9.75,0,0,0,0,3.44,12.49,12.49,0,0,1-.08,4.49c-0.5,2.43-1.35,4.74-1.61,7.22A179.91,179.91,0,0,0,299.71,93a0.41,0.41,0,0,0,.81.11,95.57,95.57,0,0,0,5.17-33,0.41,0.41,0,0,0-.82,0c-0.24,1.79-.26,3.61-0.49,5.4l0.81-.11a14.94,14.94,0,0,1-.72-4.31,0.41,0.41,0,0,0-.81-0.11,33.6,33.6,0,0,1-3.15,9.23l0.75,0.32c0.78-2.26,1.92-4.37,2.7-6.63l-0.81-.11v2.35a0.41,0.41,0,0,0,.82,0V66a0.41,0.41,0,0,0-.82,0v0.14a0.41,0.41,0,0,0,.82,0V63.79a0.41,0.41,0,0,0-.81-0.11c-0.78,2.26-1.92,4.37-2.7,6.63a0.41,0.41,0,0,0,.75.32,34.34,34.34,0,0,0,3.23-9.43l-0.81-.11a15.7,15.7,0,0,0,.75,4.53,0.41,0.41,0,0,0,.81-0.11c0.24-1.79.26-3.61,0.49-5.4h-0.82a94.87,94.87,0,0,1-5.14,32.78L300.53,93c0-5.92,1-11.78,1.47-17.67a56.56,56.56,0,0,1,1.61-7.43,11.1,11.1,0,0,0,.27-3.62,13.52,13.52,0,0,1-.18-4.3l-0.4.3a3.77,3.77,0,0,1,1.27.43c0.47,0.23.89-.48,0.41-0.71h0Z"/><path class="cls-12" d="M303.44,51.55a2.12,2.12,0,0,0-.53,1.79c0.12,0.5,1.17.58,1.58,0.59,1.41,0,1.43-1.54,1.18-2.52a0.41,0.41,0,0,0-.29-0.29,2.54,2.54,0,0,0-2.86.87,3,3,0,0,0-.12,2.76,2.13,2.13,0,0,0,2.13,1.4,2.35,2.35,0,0,0,2.18-2c0.14-1.71-1.93-4.26-3.42-2.3-0.67.89-1,2.27,0.1,2.9a1.19,1.19,0,0,1,.78.71,0.51,0.51,0,0,0,.77.28,3.21,3.21,0,0,0,.73-2.64c-0.24-1.38-1.72-.52-2.25.15-0.74.93,0.18,1.67,1.09,1.78a0.89,0.89,0,0,0,.8-1.57,0.41,0.41,0,0,0-.58.58c0.2,0.22.1,0.2,0.2,0.13a0.76,0.76,0,0,1-.42,0c-0.18,0-.63-0.11-0.51-0.36a1.79,1.79,0,0,1,.6-0.56,0.93,0.93,0,0,1,.29-0.14c-0.05,0-.08-0.07-0.06,0a2.12,2.12,0,0,1-.08,1.1,4.76,4.76,0,0,1-.15.51,1.86,1.86,0,0,1-.1.22c-0.2.39,0.17-.48,0.43,0.2a1.35,1.35,0,0,0-.56-0.85,1.42,1.42,0,0,1-.92-0.7,2.32,2.32,0,0,1,.81-1.62c0.76-.48,1.47,1,1.59,1.51a1.53,1.53,0,0,1-1.79,1.82c-0.86-.18-1.15-1.29-1.12-2,0-1.25,1.14-1.61,2.21-1.36l-0.29-.29a1.44,1.44,0,0,1-.06,1.39,1.64,1.64,0,0,1-1.39-.18l0.29,0.29a1.47,1.47,0,0,1,.45-1.16,0.41,0.41,0,0,0-.71-0.41h0Z"/><path class="cls-12" d="M317.94,59.75a2,2,0,0,0-2.72-1.64,7.53,7.53,0,0,0-4.09,3c-0.91,1.25-1.4,3.08-.37,4.41s2.63,1.05,4,1c2-.08,4,0,4.75,2.17s0,5.05-.9,7.23a25.8,25.8,0,0,1-10,11.63,12.12,12.12,0,0,1-1.25.64l0.42,0.71c3.31-1.51,6.21-4.41,8.57-7.1s5.24-6.58,5-10.54a5.19,5.19,0,0,0-2-3.91c-1.29-.88-3.15-0.81-4.64-0.87s-3.69,0-4.19-1.77c-0.68-2.32,1.28-4.55,3.37-5.17a3.37,3.37,0,0,1,4.17,2,0.42,0.42,0,0,0,.71,0c1.07-1.51.38-2.92-1.13-3.75a0.41,0.41,0,0,0-.6.46c0.27,1,.65,2,1,2.95a0.42,0.42,0,0,0,.69.18c2.9-3.13-3.11-6.38-5.06-3.2a0.41,0.41,0,0,0,.71.41c1.33-2.17,5.83,0,3.77,2.2L318.68,61c-0.34-1-.71-1.94-1-2.95l-0.6.46c1.12,0.62,1.65,1.48.83,2.63h0.71c-1.73-3.88-6.9-2.79-8.63.51a4.16,4.16,0,0,0,.25,4.54c1,1.07,2.79,1.09,4.11,1.16,1.58,0.08,3.67-.08,4.88,1.14,1.36,1.37,1.37,3.53.93,5.27-1.07,4.25-4.56,7.91-7.71,10.77a21.19,21.19,0,0,1-5.2,3.72c-0.48.22-.06,0.92,0.42,0.71,4.08-1.83,7.4-5.57,9.8-9.25,2.13-3.28,4.43-8.38,2.32-12.2-0.77-1.4-2.36-1.76-3.84-1.78s-3.64.56-4.6-.69c-1.26-1.63.65-3.88,1.85-4.89,1-.85,3.6-2.31,3.94-0.14,0.08,0.52.88,0.3,0.79-.22h0Z"/><path class="cls-12" d="M284.9,67.88c3.77-.25,7.54-0.49,11.29-1l-0.41-.41a13.23,13.23,0,0,1-.72,3.33l0.4-.3c-4.46.19-9-1.19-13.36,0l0.51,0.29a8,8,0,0,1-.23-2.1l-0.41.41c2.62,0,5.23.23,7.85,0.25V67.55c-2.38,0-4.74.46-7.12,0.49a0.41,0.41,0,0,0-.21.77c0.75,0.39.92,0.06,1.64,0.06a4.42,4.42,0,0,0,2.21-.55l-0.6-.46c-0.06.17-.18,0.31-0.25,0.49a0.41,0.41,0,0,0,.29.51,2.94,2.94,0,0,0,1.45-.25l-0.52-.4v0.74a0.42,0.42,0,0,0,.52.4,4.52,4.52,0,0,0,1.92-.83,0.41,0.41,0,0,0-.08-0.65h0a0.42,0.42,0,0,0-.6.25c-0.14.37-.58,0.58-0.74,1a0.41,0.41,0,0,0,.6.46A15.08,15.08,0,0,0,290.59,68l-0.69-.4a2.29,2.29,0,0,1-.63.8,0.41,0.41,0,0,0,.58.58,7.31,7.31,0,0,1,1.39-1.16l-0.5-.65c-0.39.46-.62,1-1,1.47a0.41,0.41,0,0,0,.5.65,9.12,9.12,0,0,0,2-1.29l-0.69-.4c-0.18.65-.25,1.33-0.49,2a0.41,0.41,0,0,0,.69.4,14.16,14.16,0,0,0,1.78-1.8l-0.75-.32a1.73,1.73,0,0,1-.45.94l0.32,0.75a4.67,4.67,0,0,0,1.62-1.62l-0.77-.21a2.71,2.71,0,0,1-.43,1.27c-0.28.39,0.32,0.81,0.65,0.5a5.11,5.11,0,0,0,1.58-2.15l-0.81-.11v2.21a0.41,0.41,0,0,0,.77.21,18.65,18.65,0,0,0,1-2.06l-0.81-.11c0,0.58.2,1.14,0.25,1.72a0.41,0.41,0,0,0,.82,0c0-.54,0-0.42.43-0.59s0.27-1-.22-0.79a1.24,1.24,0,0,0-1,1.38h0.82c0-.58-0.2-1.14-0.25-1.72a0.41,0.41,0,0,0-.81-0.11,17,17,0,0,1-.94,1.87l0.77,0.21V67.22a0.41,0.41,0,0,0-.81-0.11,4.32,4.32,0,0,1-1.37,1.78l0.65,0.5a3.51,3.51,0,0,0,.55-1.68,0.41,0.41,0,0,0-.77-0.21,3.81,3.81,0,0,1-1.32,1.33c-0.39.23-.12,0.94,0.32,0.75a2.06,2.06,0,0,0,1-1.51,0.41,0.41,0,0,0-.75-0.32,13,13,0,0,1-1.65,1.64l0.69,0.4c0.24-.63.31-1.31,0.49-2a0.41,0.41,0,0,0-.69-0.4,8.37,8.37,0,0,1-1.88,1.16l0.5,0.65c0.36-.47.59-1,1-1.47a0.41,0.41,0,0,0-.5-0.65,8.15,8.15,0,0,0-1.56,1.29L289.85,69a3,3,0,0,0,.84-1.16,0.41,0.41,0,0,0-.69-0.4,13.88,13.88,0,0,1-2.13,1.41l0.6,0.46c0.14-.37.58-0.58,0.74-1l-0.6.25h0l-0.08-.65a3.75,3.75,0,0,1-1.56.62l0.52,0.4V68.21a0.42,0.42,0,0,0-.52-0.4,2.4,2.4,0,0,1-1,.25l0.29,0.51c0.06-.17.18-0.31,0.25-0.49a0.41,0.41,0,0,0-.6-0.46,3.66,3.66,0,0,1-1.8.43,2.14,2.14,0,0,1-1.23.06l-0.21.77c2.38,0,4.74-.46,7.12-0.49a0.41,0.41,0,0,0,0-.82c-2.62,0-5.23-.23-7.85-0.25a0.41,0.41,0,0,0-.41.41A8.75,8.75,0,0,0,281.8,70a0.42,0.42,0,0,0,.51.29c4.31-1.18,8.77.21,13.15,0a0.42,0.42,0,0,0,.4-0.3,14,14,0,0,0,.75-3.55,0.41,0.41,0,0,0-.41-0.41c-3.75.49-7.52,0.73-11.29,1-0.53,0-.53.86,0,0.82h0Z"/><path class="cls-12" d="M324.42,93.9a5.44,5.44,0,0,0,2.08-.64c0.38-.19,1.22-0.5,1.28-1,0.26-2.46.71-4.89,0.74-7.36a0.41,0.41,0,0,0-.77-0.21A36.65,36.65,0,0,0,325,93.38l0.81,0.11c-0.17-4.42,1.69-8.38,2.44-12.65,0.09-.52-0.7-0.74-0.79-0.22C326.69,85,324.82,89,325,93.49c0,0.44.73,0.58,0.81,0.11a35.8,35.8,0,0,1,2.66-8.49l-0.77-.21a42.24,42.24,0,0,1-.46,5.06c-0.09.66,0,1.89-.57,2.26a5,5,0,0,1-2.24.86c-0.53,0-.53.86,0,0.82h0Z"/><path class="cls-12" d="M330,63.19a1,1,0,0,0-1.54.39l0.75,0.32,0.38-.55L329,62.76a6.51,6.51,0,0,0-1.58,3.62c-0.06.35,0.41,0.76,0.69,0.4,1.3-1.67,3.12-3.2,5.37-2.59s3.4,3.13,4,5.11a0.41,0.41,0,0,0,.79-0.22,8.34,8.34,0,0,1,.66-5c1.24-2.32,2.66,1.64,3,2.54,1.68,4.35,3.3,9.06,2.67,13.78-0.07.51,0.67,0.75,0.79,0.22,1-4.56.72-10.35-2-14.31l-0.56.56c2.39,1.29,2.58,4.94,2.67,7.31a37.78,37.78,0,0,1-.65,8.18l0.81,0.11a8.82,8.82,0,0,0-.26-1.85,0.41,0.41,0,0,0-.79,0v0c-0.11.52,0.68,0.74,0.79,0.22v0h-0.79a7.7,7.7,0,0,1,.23,1.63c0,0.44.72,0.59,0.81,0.11a38.85,38.85,0,0,0,.64-9.25c-0.14-2.48-.6-5.86-3-7.17a0.41,0.41,0,0,0-.56.56c2.6,3.78,2.9,9.31,1.92,13.67l0.79,0.22a22.14,22.14,0,0,0-.82-8.78c-0.43-1.59-1-3.15-1.57-4.7a14.8,14.8,0,0,0-1.7-3.73,1.66,1.66,0,0,0-2.86-.09c-1.19,1.68-1.24,4.05-1,6l0.79-.22c-0.73-2.39-2.07-4.85-4.58-5.69s-4.76,1-6.17,2.81l0.69,0.4a5.83,5.83,0,0,1,1.37-3.25,0.41,0.41,0,0,0-.58-0.58,2.12,2.12,0,0,0-.6.92,0.41,0.41,0,0,0,.75.32l0.42-.1c0.48,0.21.9-.5,0.41-0.71h0Z"/><path class="cls-12" d="M339.63,90.38c0.41,0.5.82,1,1.22,1.51s1,0.05.71-.42a6.92,6.92,0,0,0-1-1.31l-0.58.58c2.66,2.66,6.39,3,9.91,2.23a22.18,22.18,0,0,0,6-2.4,6.67,6.67,0,0,0,3-3.77A34.4,34.4,0,0,0,360.43,81a7.62,7.62,0,0,0-.79-5.39,13.09,13.09,0,0,0-4.14-3.94,24.33,24.33,0,0,1-3.11-2.33c-1.17-1.11-.25-2.8.81-3.56l-0.6-.25a6.86,6.86,0,0,1,0,3l0.81,0.11c-0.5-4.62,10.38-9.15,10.71-4.17l0.52-.4a7.23,7.23,0,0,1-3-1.86l-0.4.69c0.92,0.27,1.78.71,2.7,1a0.41,0.41,0,0,0,.22-0.79c-0.92-.27-1.78-0.71-2.7-1a0.41,0.41,0,0,0-.4.69,8.15,8.15,0,0,0,3.37,2.07,0.41,0.41,0,0,0,.52-0.4c-0.43-6.42-13-1.35-12.36,4.17,0,0.43.7,0.6,0.81,0.11a7.93,7.93,0,0,0,0-3.41,0.41,0.41,0,0,0-.6-0.25A3.83,3.83,0,0,0,351,68.25c0,1.61,1.9,2.66,3.05,3.45A16.17,16.17,0,0,1,358.92,76c1.31,2,.86,4.47.27,6.66A23.9,23.9,0,0,1,357.38,88c-1.06,1.94-3.63,2.85-5.59,3.57-3.73,1.38-8.27,1.62-11.28-1.39a0.41,0.41,0,0,0-.58.58,6.13,6.13,0,0,1,.92,1.14l0.71-.42c-0.44-.57-0.89-1.12-1.35-1.67s-0.92.18-.58,0.58h0Z"/><path class="cls-12" d="M339.72,90.1l0.11,0.46,0.69-.4c-0.11-.11-0.25-0.27-0.31-0.35a0.42,0.42,0,0,0-.56-0.15,0.41,0.41,0,0,0-.15.56,5.29,5.29,0,0,0,.43.52,0.41,0.41,0,0,0,.69-0.4l-0.11-.46a0.41,0.41,0,1,0-.79.22h0Z"/><path class="cls-12" d="M339.92,90.18a5.38,5.38,0,0,0,.44,1,0.41,0.41,0,0,0,.75-0.32C341,90.44,341,90,340.86,89.65a0.41,0.41,0,0,0-.79.22c0.09,0.39.17,0.79,0.25,1.18l0.75-.32a4.27,4.27,0,0,1-.36-0.77c-0.17-.5-1-0.28-0.79.22h0Z"/><path class="cls-12" d="M363.74,63c1.1,0.85,2.46.36,3.73,0.37V62.55a8.23,8.23,0,0,0-4.87,1.53,0.41,0.41,0,0,0,.32.75,9.52,9.52,0,0,0,3.53-1.51,0.41,0.41,0,0,0-.32-0.75,9.76,9.76,0,0,0-3.29,1.27l0.5,0.65a17.64,17.64,0,0,0,1.47-1.72,0.42,0.42,0,0,0-.18-0.69,8.21,8.21,0,0,0-3.3-.51c-0.42.05-.61,0.72-0.11,0.81a22.42,22.42,0,0,1,4.17,1.23c0.47,0.19.65-.49,0.32-0.75a24.94,24.94,0,0,0-4.17-2.45l-0.21.77c2.3-.18,4.39.73,6.52,1.46l0.11-.81c-2.6-.33-5.08-1.24-7.7-1.42a10.31,10.31,0,0,0-6,1.51c-2.55,1.59-4.23,5-1,6.81a0.41,0.41,0,0,0,.5-0.65c-2.4-2.36,1-4.35,3-5.2l-0.32-.75a6.32,6.32,0,0,0-3.2,3.11c-0.69,1.64.18,3.53,1,5,1.92,3.44,7.19,7.88,4.78,12.2l0.75,0.1C359,77.57,358.34,72,353.69,69.23l-0.21.77c3.7-.26,5,4.93,5.31,7.76,0.43,4.54-2.6,8.38-5.6,11.42a0.41,0.41,0,0,0,.4.69c3.59-.91,7.2-3.88,7.9-7.65a0.42,0.42,0,0,0-.6-0.46c-3.13,2.17-4.91,5.83-8.19,7.79-1.69,1-3.75,1.19-5.61,1.76a5.81,5.81,0,0,1-3.31.33c-1.09-.3-1.65-1.56-2-2.49-0.21-.49-0.92-0.07-0.71.41,0.72,1.69,1.74,2.95,3.68,3a8.78,8.78,0,0,0,3-.62c1.19-.37,2.42-0.57,3.61-0.94,4.47-1.39,6.37-6.05,10-8.58l-0.6-.46c-0.64,3.5-4,6.23-7.32,7.08l0.4,0.69c3.45-3.5,6.41-7.64,5.76-12.79-0.39-3.13-2.13-8.07-6.05-7.8a0.41,0.41,0,0,0-.21.77c4.44,2.68,5,8.1,5.7,12.76a0.41,0.41,0,0,0,.75.1c1.87-3.35-.43-6.75-2.35-9.5A21.5,21.5,0,0,1,354,67.74c-0.75-2.33.91-3.95,2.83-4.92,0.41-.21.12-0.93-0.32-0.75-2.66,1.1-6.31,3.69-3.37,6.58l0.5-.65c-3.68-2,.42-5.36,2.72-6.23,3.85-1.45,7.72.38,11.56,0.86,0.48,0.06.52-.67,0.11-0.81-2.2-.75-4.36-1.67-6.74-1.49a0.41,0.41,0,0,0-.21.77,25,25,0,0,1,4.17,2.45l0.32-.75a22.41,22.41,0,0,0-4.17-1.23l-0.11.81a7.68,7.68,0,0,1,3.08.48l-0.18-.69a17.86,17.86,0,0,1-1.47,1.72,0.41,0.41,0,0,0,.5.65,9.15,9.15,0,0,1,3.09-1.19L366,62.6A9,9,0,0,1,362.7,64L363,64.79a7.46,7.46,0,0,1,4.46-1.42,0.41,0.41,0,0,0,0-.82c-0.93,0-2.34.5-3.15-.12-0.41-.32-1,0.26-0.58.58h0Z"/></svg>